<svg id="Layer_1" data-name="Layer 1" xmlns="http://www.w3.org/2000/svg" viewBox="0 0 841.9 426.46"><defs><style>.cls-1{fill:#3b9cd1;}.cls-2{fill:#bde4f9;}.cls-3{fill:#79c3ec;}.cls-4{fill:#fff;}.cls-5{fill:none;stroke:#fff;stroke-miterlimit:10;stroke-width:5px;}.cls-6{fill:#5cafe1;}</style></defs><title>iceberg</title><rect class="cls-1" y="99.96" width="841.89" height="326.5"/><path class="cls-2" d="M338.55,200.82c-9,2-20,23-32,24s-34,0-40,8c-2.88,3.84-6.68,19-9.85,32H384l6.17-37.67C380.22,220.15,347.55,198.82,338.55,200.82Z" transform="translate(0 -168.82)"/><path class="cls-3" d="M256.69,264.82c-1.32,5.4-2.54,10.43-3.53,14.08a23,23,0,0,0,2.72,18.32c10.4,16.54,32.57,52.7,34.66,63.6,7.5,39,24,44,32,64,4.15,10.38,25.5,4,32,0,9.17-5.64,24-72,24-72l5.5-88H256.69Z" transform="translate(0 -168.82)"/><path class="cls-4" d="M338.55,200.82c-9,2-20,23-32,24s-34,0-40,8c-2,2.71-4.52,11.09-6.92,20.32,11.61,0.92,14.79-10.32,17.26-14.32,2.67-4.33,17.33-2.33,27.33-3.67s9.33,6.33,19.24,8.67,11.76-20.33,16.43-24.67,38.67,13.67,46.33,19.33l2.69-3.33,1.31-8C380.22,220.15,347.55,198.82,338.55,200.82Z" transform="translate(0 -168.82)"/><path class="cls-2" d="M570.55,264.82c0-25.33-21.79-35.12-32-40-12.1-5.79-37.33-4-48-24s-18-32-24-32c-11.33,0-39.33,5.33-56,24-13.55,15.18-10.67,29.33-32,40-6.42,3.21-24,8-24,32v40c0,30,34.67,50.67,48,56s30.21,136,48,136c17.33,0,37.33-65.33,48-72s32-7.89,32-40v-72C551.87,291.5,570.55,316.82,570.55,264.82Z" transform="translate(0 -168.82)"/><path class="cls-4" d="M538.55,224.82c-12.1-5.79-37.33-4-48-24s-18-32-24-32c-11.33,0-39.33,5.33-56,24-13.55,15.18-10.67,29.33-32,40-6.2,3.1-22.64,7.81-23.79,29.74,8.29-11.24,34.79-18.24,51.29-14.24,10.87,2.63,3.5,10.86,16.06,10.86,9.43,0,8.67-40.11,15.44-46.36,6.5-6,13.58-4.42,18,12,7,26,51,6.5,107.67,17.64h0C555.93,232.89,545,227.88,538.55,224.82Z" transform="translate(0 -168.82)"/><line class="cls-5" x1="0.75" y1="96.77" x2="841.89" y2="98.5"/><path class="cls-3" d="M492.55,347.64c0-19-14.67-22.77-14.67-8.63,0,8.16-11.62,15.65-18.89,5.31-5.93-8.43-7.77-32.91-7.77-44.17,0-22.33-18.15-23.51-18.15-.68,0,33.34-14.56,27.52-14.56,40.68,0,24.67,13,45.67,0,61.67-0.2.25-.34,0.57-0.53,0.83,10,40,21.07,94.17,32.53,94.17,17.33,0,37.33-65.33,48-72,4.38-2.74,10.55-4.58,16.31-8C496.55,414.82,492.55,383.83,492.55,347.64Z" transform="translate(0 -168.82)"/><path class="cls-6" d="M348,359.32c0-25.17,1.5-39.83-8.5-44.17-8.87-3.84-18.75,8.42-21.35-2.33-4.78-19.76-5-26.48-11.38-26.48s-8.76,9.9-8.76,34.48c0,37.07,3.83,42.9-5.93,47.14,8,32.56,23,38.15,30.43,56.86,4.15,10.38,25.5,4,32,0,6.15-3.79,14.83-34.83,19.89-54.9C369.88,380.82,348,381.52,348,359.32Z" transform="translate(0 -168.82)"/></svg>