<svg id="Layer_1" data-name="Layer 1" xmlns="http://www.w3.org/2000/svg" viewBox="0 0 487.17 359.5"><defs><style>.cls-1{fill:#d6bad9;}.cls-2{fill:#aa6aa7;}.cls-3{fill:#6b4a7a;}.cls-4{fill:#b167aa;}.cls-5{fill:#f7e7f1;}.cls-6{fill:#e9cbe2;}.cls-7{fill:#bf90b7;}.cls-8{fill:#ebcce2;}.cls-9{fill:#eccbe1;}.cls-10{fill:#aa66a5;}.cls-11{fill:#d7add1;}.cls-12{fill:#e8cce2;}.cls-13{fill:#c78fc0;}.cls-14{fill:#b176b2;}.cls-15{fill:#f0e3f0;}.cls-16{fill:#f5e7f2;}.cls-17{fill:#d4b7d7;}.cls-18{fill:#c791c1;}</style></defs><title>gem1</title><polygon class="cls-1" points="282.46 359.5 0 191.16 121.26 216.84 282.46 359.5"/><polygon class="cls-2" points="257.5 221.12 121.26 216.84 282.46 359.5 257.5 221.12"/><polygon class="cls-3" points="378.04 171.9 257.5 221.12 282.46 359.5 378.04 171.9"/><polygon class="cls-4" points="487.17 85.59 282.46 359.5 378.04 171.9 487.17 85.59"/><polygon class="cls-5" points="121.26 216.84 113.41 75.43 0 191.16 121.26 216.84"/><polygon class="cls-6" points="43.33 104.32 113.41 75.43 0 191.16 43.33 104.32"/><polygon class="cls-7" points="257.5 221.12 197.4 90.41 121.26 216.84 257.5 221.12"/><polygon class="cls-8" points="113.41 75.43 197.4 90.41 121.26 216.84 113.41 75.43"/><polygon class="cls-9" points="290.48 75.43 197.4 90.41 257.5 221.12 290.48 75.43"/><polygon class="cls-10" points="290.48 75.43 378.04 171.9 257.5 221.12 290.48 75.43"/><polygon class="cls-11" points="290.48 75.43 357.35 34.77 378.04 171.9 290.48 75.43"/><polygon class="cls-12" points="357.35 34.77 410.32 34.77 487.17 85.59 357.35 34.77"/><polygon class="cls-13" points="378.04 171.9 357.35 34.77 487.17 85.59 378.04 171.9"/><polygon class="cls-14" points="410.32 34.77 301.18 0 357.35 34.77 410.32 34.77"/><polygon class="cls-15" points="121.26 42.8 43.33 104.32 113.41 75.43 121.26 42.8"/><polygon class="cls-16" points="113.41 75.43 197.4 11.41 121.26 42.8 113.41 75.43"/><polygon class="cls-5" points="357.35 34.77 197.4 11.41 301.18 0 357.35 34.77"/><polygon class="cls-17" points="113.41 75.43 357.35 34.77 197.4 11.41 113.41 75.43"/><polygon class="cls-18" points="197.4 90.41 357.35 34.77 113.41 75.43 197.4 90.41"/><polygon class="cls-17" points="290.48 75.43 357.35 34.77 197.4 90.41 290.48 75.43"/></svg>