<svg id="Layer_1" data-name="Layer 1" xmlns="http://www.w3.org/2000/svg" viewBox="0 0 487.17 359.5"><defs><style>.cls-1{fill:#bbd8e8;}.cls-2{fill:#6a8db4;}.cls-3{fill:#484f7d;}.cls-4{fill:#6886b5;}.cls-5{fill:#e7f0fa;}.cls-6{fill:#cae3f6;}.cls-7{fill:#8dbbd2;}.cls-8{fill:#adc6e7;}.cls-9{fill:#7499c0;}.cls-10{fill:#e2ebf3;}.cls-11{fill:#b6d5e6;}</style></defs><title>gem2</title><polygon class="cls-1" points="282.46 359.5 0 191.16 121.26 216.84 282.46 359.5"/><polygon class="cls-2" points="257.5 221.12 121.26 216.84 282.46 359.5 257.5 221.12"/><polygon class="cls-3" points="378.04 171.9 257.5 221.12 282.46 359.5 378.04 171.9"/><polygon class="cls-4" points="487.17 85.59 282.46 359.5 378.04 171.9 487.17 85.59"/><polygon class="cls-5" points="121.26 216.84 113.41 75.43 0 191.16 121.26 216.84"/><polygon class="cls-6" points="43.33 104.32 113.41 75.43 0 191.16 43.33 104.32"/><polygon class="cls-7" points="257.5 221.12 197.4 90.41 121.26 216.84 257.5 221.12"/><polygon class="cls-6" points="113.41 75.43 197.4 90.41 121.26 216.84 113.41 75.43"/><polygon class="cls-6" points="290.48 75.43 197.4 90.41 257.5 221.12 290.48 75.43"/><polygon class="cls-4" points="290.48 75.43 378.04 171.9 257.5 221.12 290.48 75.43"/><polygon class="cls-8" points="290.48 75.43 357.35 34.77 378.04 171.9 290.48 75.43"/><polygon class="cls-6" points="357.35 34.77 410.32 34.77 487.17 85.59 357.35 34.77"/><polygon class="cls-7" points="378.04 171.9 357.35 34.77 487.17 85.59 378.04 171.9"/><polygon class="cls-9" points="410.32 34.77 301.18 0 357.35 34.77 410.32 34.77"/><polygon class="cls-10" points="121.26 42.8 43.33 104.32 113.41 75.43 121.26 42.8"/><polygon class="cls-5" points="113.41 75.43 197.4 11.41 121.26 42.8 113.41 75.43"/><polygon class="cls-5" points="357.35 34.77 197.4 11.41 301.18 0 357.35 34.77"/><polygon class="cls-11" points="113.41 75.43 357.35 34.77 197.4 11.41 113.41 75.43"/><polygon class="cls-7" points="197.4 90.41 357.35 34.77 113.41 75.43 197.4 90.41"/><polygon class="cls-11" points="290.48 75.43 357.35 34.77 197.4 90.41 290.48 75.43"/></svg>