<svg id="Layer_1" data-name="Layer 1" xmlns="http://www.w3.org/2000/svg" viewBox="0 0 487.17 359.5"><defs><style>.cls-1{fill:#bbe3e4;}.cls-2{fill:#6ab2b2;}.cls-3{fill:#336667;}.cls-4{fill:#67a4b2;}.cls-5{fill:#eaf6f3;}.cls-6{fill:#ceebea;}.cls-7{fill:#8fd1bb;}.cls-8{fill:#ceeae6;}.cls-9{fill:#ceeae4;}.cls-10{fill:#66b2b0;}.cls-11{fill:#afdfde;}.cls-12{fill:#ceebee;}.cls-13{fill:#8fd1c9;}.cls-14{fill:#76bebf;}.cls-15{fill:#e4f1f2;}.cls-16{fill:#e9f6f7;}.cls-17{fill:#b8e2e5;}.cls-18{fill:#8fd1ca;}.cls-19{fill:#b8e2e0;}</style></defs><title>gem3</title><polygon class="cls-1" points="282.46 359.5 0 191.16 121.26 216.84 282.46 359.5"/><polygon class="cls-2" points="257.5 221.12 121.26 216.84 282.46 359.5 257.5 221.12"/><polygon class="cls-3" points="378.04 171.9 257.5 221.12 282.46 359.5 378.04 171.9"/><polygon class="cls-4" points="487.17 85.59 282.46 359.5 378.04 171.9 487.17 85.59"/><polygon class="cls-5" points="121.26 216.84 113.41 75.43 0 191.16 121.26 216.84"/><polygon class="cls-6" points="43.33 104.32 113.41 75.43 0 191.16 43.33 104.32"/><polygon class="cls-7" points="257.5 221.12 197.4 90.41 121.26 216.84 257.5 221.12"/><polygon class="cls-8" points="113.41 75.43 197.4 90.41 121.26 216.84 113.41 75.43"/><polygon class="cls-9" points="290.48 75.43 197.4 90.41 257.5 221.12 290.48 75.43"/><polygon class="cls-10" points="290.48 75.43 378.04 171.9 257.5 221.12 290.48 75.43"/><polygon class="cls-11" points="290.48 75.43 357.35 34.77 378.04 171.9 290.48 75.43"/><polygon class="cls-12" points="357.35 34.77 410.32 34.77 487.17 85.59 357.35 34.77"/><polygon class="cls-13" points="378.04 171.9 357.35 34.77 487.17 85.59 378.04 171.9"/><polygon class="cls-14" points="410.32 34.77 301.18 0 357.35 34.77 410.32 34.77"/><polygon class="cls-15" points="121.26 42.8 43.33 104.32 113.41 75.43 121.26 42.8"/><polygon class="cls-16" points="113.41 75.43 197.4 11.41 121.26 42.8 113.41 75.43"/><polygon class="cls-16" points="357.35 34.77 197.4 11.41 301.18 0 357.35 34.77"/><polygon class="cls-17" points="113.41 75.43 357.35 34.77 197.4 11.41 113.41 75.43"/><polygon class="cls-18" points="197.4 90.41 357.35 34.77 113.41 75.43 197.4 90.41"/><polygon class="cls-19" points="290.48 75.43 357.35 34.77 197.4 90.41 290.48 75.43"/></svg>