<?xml version="1.0" encoding="UTF-8"?>
<!DOCTYPE svg  PUBLIC '-//W3C//DTD SVG 1.1//EN'  'http://www.w3.org/Graphics/SVG/1.1/DTD/svg11.dtd'>
<svg enable-background="new 0 0 176.1 89.4" version="1.1" viewBox="0 0 176.1 89.4" xml:space="preserve" xmlns="http://www.w3.org/2000/svg">
<g clip-rule="evenodd" fill-rule="evenodd">
	<path d="m123.85 53.3c-0.133-0.166-0.366-0.583-0.699-1.25-0.5-1.033-1.2-2.684-2.101-4.95-1.033-2.533-2.434-4-4.2-4.399l-0.399-0.1h-0.05c-0.2-0.033-0.4-0.05-0.601-0.05h-3.6c-1.233 0.167-2.517 0.434-3.851 0.8 0.034-0.033 0.067-0.05 0.101-0.05 1.566-1.733 3.6-2.75 6.1-3.05 1.4-0.2 2.851-0.167 4.351 0.1 1.699 0.267 3.017 0.767 3.949 1.5 0.301 0.233 1.184 1.333 2.65 3.3 0.767 0.966 2.05 1.5 3.85 1.6 1.4 0.066 2.801-0.283 4.2-1.05 1.566-1 2.8-1.767 3.7-2.3 1.634-0.9 3.733-1.383 6.3-1.45 1.5-0.034 3.717 0.017 6.65 0.15 2.767 0 5.434 0.4 8 1.2l5.95 2.7c0.399 0.267 0.783 0.55 1.149 0.85 0.033 0.034 0.084 0.067 0.15 0.101l0.149 0.35c-0.033-0.033-0.066-0.05-0.1-0.05-2.267-1.333-4.533-2.217-6.8-2.65-2.867-0.567-5.684-0.783-8.45-0.65-3.1 0.1-5.833 0.633-8.2 1.6-1.1 0.467-2.6 1.334-4.5 2.601-1.967 1.333-3.434 2.216-4.399 2.649-0.767 0.334-2.101 0.517-4 0.55-1.733 0.067-3.034 0.351-3.9 0.851l-1.4 1.097zm-93.35-4.15c-0.067 0.033-0.117 0.05-0.15 0.05-0.133 0.033-0.267 0.066-0.4 0.1l-2.6 0.55c-0.1 0.034-0.184 0.051-0.25 0.051-1.233 0.199-2.45 0.3-3.65 0.3h-2.05l-5-0.25c-0.833-0.066-1.55-0.15-2.15-0.25-0.333-0.066-0.633-0.134-0.9-0.2s-0.517-0.134-0.75-0.2l-0.5-0.149c-0.567-0.2-1.083-0.417-1.55-0.65l-1.95-1.452c-0.567-0.6-0.983-1.267-1.25-2-0.1-0.267-0.184-0.55-0.25-0.85l0.05 0.05c2.1 1.333 4.033 2.4 5.8 3.2 1.7 0.767 3.733 1.2 6.1 1.3 1.4 0.066 3.5 0.066 6.3 0 2.833 0.033 5.566-0.366 8.2-1.2 2.867-0.899 5.284-2.217 7.25-3.95 0.934-0.833 2.05-2.267 3.35-4.3 1.333-2.1 2.434-3.566 3.3-4.4 1.333-1.267 2.733-2.233 4.2-2.9 1.367-0.6 2.967-1.017 4.8-1.25 1.5-0.2 3.45-0.267 5.85-0.2 1.3 0.067 3.25 0.133 5.85 0.2 0.233 0 1.35 0.033 3.35 0.1 1.367 0.033 2.467 0.017 3.3-0.05 0.367-0.033 1.717-0.117 4.05-0.25 1.767-0.1 3.083-0.283 3.95-0.55 0.667-0.2 1.6-0.633 2.8-1.3 1.133-0.633 2.083-1.05 2.85-1.25 1.767-0.467 4.333-0.7 7.7-0.7 7.199 0 10.933-1.283 11.199-3.85 0.067 1.867-0.383 3.233-1.35 4.1-0.733 0.633-2.083 1.2-4.05 1.7-1.733 0.267-3.033 0.5-3.9 0.7-1.533 0.367-2.45 1.017-2.75 1.95-0.166 0.467-0.283 1.35-0.35 2.65-0.066 0.733-0.217 1.317-0.45 1.75-0.5-0.7-1.2-1.233-2.1-1.6l-0.35-0.15c-0.333-0.133-0.7-0.233-1.1-0.3l2.8-3.05c-2.2 1.133-4.967 1.867-8.3 2.2-3.867 0.2-6.8 0.433-8.8 0.7-2.2 0.3-5.95 1.15-11.25 2.55-2.133 0.566-3.517 0.967-4.15 1.2-0.067 0-0.133 0.017-0.2 0.05-0.133 0-0.25 0.017-0.35 0.05-1.9 0.067-3.567 0.217-5 0.45-0.1 0-0.2 0.017-0.3 0.05-0.967 0.1-1.816 0.25-2.55 0.45-2.233 0.566-4.5 1.483-6.8 2.75l-1.25 0.75c-0.167 0.066-0.316 0.15-0.45 0.25l-0.35 0.2c-3.967 2.534-7.233 4.351-9.8 5.45-0.133 0.066-0.284 0.134-0.45 0.2-0.3 0.133-0.583 0.25-0.85 0.35-0.3 0.101-0.583 0.217-0.85 0.351l-0.8 0.25c-0.1 0.033-0.183 0.066-0.25 0.1-0.167 0.065-0.333 0.115-0.5 0.149z" fill="#ABB5C0"/>
	<path d="m165.6 47.3c0.367 0.934 0.851 2.334 1.45 4.2 0.566 1.5 1.184 2.684 1.851 3.55-0.267-0.166-0.534-0.333-0.801-0.5l-0.8-0.55c-0.033-0.033-0.066-0.05-0.1-0.05-1.634-1-3.45-2.017-5.45-3.05-2.366-1.2-4.967-2.434-7.8-3.7-0.3-0.134-0.601-0.25-0.9-0.351-1.566-0.5-3.083-0.533-4.55-0.1-1.033 0.333-2.717 1.267-5.05 2.8-5.367 3.434-10.884 5.15-16.55 5.15h-0.351c-0.399-0.033-0.767-0.117-1.1-0.25-0.634-0.233-1.167-0.617-1.601-1.15l1.4-1.1c0.866-0.5 2.167-0.783 3.9-0.851 1.899-0.033 3.233-0.216 4-0.55 0.966-0.434 2.433-1.316 4.399-2.649 1.9-1.267 3.4-2.134 4.5-2.601 2.367-0.966 5.101-1.5 8.2-1.6 2.767-0.133 5.583 0.083 8.45 0.65 2.267 0.433 4.533 1.317 6.8 2.65 0.03 2e-3 0.07 0.019 0.1 0.052zm3.55 7.9c0.466 0.3 0.933 0.616 1.399 0.95 0.434 0.3 0.851 0.616 1.25 0.949-0.267-0.1-0.517-0.199-0.75-0.3l-0.25-0.149c-0.733-0.4-1.366-0.934-1.899-1.601 0.07 0.034 0.15 0.085 0.25 0.151zm-108.1-17.85c0.067-0.033 0.133-0.05 0.2-0.05 0.633-0.233 2.017-0.633 4.15-1.2 5.3-1.4 9.05-2.25 11.25-2.55 2-0.267 4.934-0.5 8.8-0.7 3.333-0.333 6.1-1.067 8.3-2.2l-2.8 3.05c-1.667-0.367-3.9-0.367-6.7 0l-3.15 0.55-1.5 0.3c-0.067 0.034-0.133 0.05-0.2 0.05-3 0.767-5.35 1.333-7.05 1.7l-2.3 0.45h-0.2c-2.167 0.267-5.1 0.467-8.8 0.6z" fill="#8D959E"/>
	<path d="m165.45 46.95c-0.066-0.033-0.117-0.066-0.15-0.101-0.366-0.3-0.75-0.583-1.149-0.85l-5.95-2.7c-2.566-0.8-5.233-1.2-8-1.2-2.934-0.133-5.15-0.184-6.65-0.15-2.566 0.066-4.666 0.55-6.3 1.45-0.9 0.533-2.134 1.3-3.7 2.3-1.399 0.767-2.8 1.116-4.2 1.05-1.8-0.1-3.083-0.634-3.85-1.6-1.467-1.967-2.35-3.067-2.65-3.3-0.933-0.733-2.25-1.233-3.949-1.5-1.5-0.267-2.95-0.3-4.351-0.1-2.5 0.3-4.533 1.317-6.1 3.05-0.033 0-0.066 0.017-0.101 0.05-1.033 0.3-2.083 0.667-3.149 1.1l-3.2 1.6c-2.8 1.634-5.767 4-8.9 7.101 0.334-0.634 0.684-1.167 1.051-1.601 0.566-0.633 1.399-1.366 2.5-2.2 1.433-1.066 2.316-1.75 2.649-2.05 0.634-0.566 2.15-2.283 4.55-5.15 1.801-2.1 3.517-3.583 5.15-4.45 1.634-0.833 3.467-1 5.5-0.5 1.167 0.3 2.934 0.867 5.3 1.7 1.834 0.5 3.367 0.55 4.601 0.15 0.833-0.233 2.25-1 4.25-2.3 1.5-1 2.883-1.617 4.149-1.85 1.467-0.3 2.967-0.183 4.5 0.35 0.7 0.267 2.283 1.117 4.75 2.55 1.767 1.034 3.517 1.567 5.25 1.6 1.7 0.033 2.934-0.066 3.7-0.3 0.6-0.233 1.583-0.85 2.95-1.85l0.55-0.35c0.267 0.167 0.533 0.317 0.8 0.45l7.55 5.3 0.051 0.05c0.133 0.133 0.267 0.283 0.399 0.45 0.83 1.001 1.55 2.268 2.15 3.801zm-43.45-25.45c0 2.433-0.167 4.1-0.5 5-0.533 1.467-1.733 2.667-3.6 3.6-1.267 0.6-2.784 1-4.551 1.2-0.866 0.067-2.449 0.1-4.75 0.1-1.1 0.033-2.517 0.233-4.25 0.6-1.966 0.433-3.383 0.683-4.25 0.75-2.333 0.233-4.05 0.65-5.149 1.25 0.066-1.3 0.184-2.183 0.35-2.65 0.3-0.934 1.217-1.583 2.75-1.95 0.867-0.2 2.167-0.433 3.9-0.7 1.967-0.5 3.316-1.067 4.05-1.7 0.967-0.867 1.417-2.233 1.35-4.1-0.267 2.567-4 3.85-11.199 3.85-3.367 0-5.934 0.233-7.7 0.7-0.767 0.2-1.717 0.617-2.85 1.25-1.2 0.667-2.133 1.1-2.8 1.3-0.867 0.267-2.183 0.45-3.95 0.55-2.333 0.133-3.684 0.217-4.05 0.25-0.833 0.067-1.933 0.083-3.3 0.05-2-0.067-3.117-0.1-3.35-0.1-2.6-0.067-4.55-0.133-5.85-0.2-2.4-0.066-4.35 0-5.85 0.2-1.833 0.233-3.434 0.65-4.8 1.25-1.467 0.667-2.867 1.633-4.2 2.9-0.867 0.833-1.967 2.3-3.3 4.4-1.3 2.034-2.417 3.467-3.35 4.3-1.966 1.733-4.383 3.05-7.25 3.95-2.633 0.834-5.367 1.233-8.2 1.2-2.8 0.066-4.9 0.066-6.3 0-2.367-0.1-4.4-0.533-6.1-1.3-1.767-0.8-3.7-1.867-5.8-3.2l-0.051-0.05c-0.133-0.667-0.2-1.4-0.2-2.2l0.05-0.8 1.2-4.1c0.167-0.3 0.333-0.617 0.5-0.95h0.05c4.466 0.133 7.617 0.184 9.45 0.15 3.533-0.066 6.583-0.4 9.15-1 2.467-0.566 5.184-2.133 8.15-4.7 3.8-3.267 6.3-5.233 7.5-5.9 3.2-1.767 7.383-2.633 12.55-2.6 2.933 0.033 7.317 0.25 13.15 0.65h5.95c0.467 0 1.7 0.183 3.7 0.55 1.567 0.3 2.8 0.35 3.7 0.15 0.833-0.2 2.183-0.85 4.05-1.95 1.567-0.9 3.101-1.367 4.601-1.4 2.333-0.067 3.633-0.15 3.899-0.25 0.7-0.333 1.233-1.367 1.601-3.1 0.233-1.233 0.366-2.983 0.399-5.25 0-2.5 0.066-4.267 0.2-5.3 1.667-0.5 3.533-0.75 5.6-0.75 0.301 0.167 0.601 0.35 0.9 0.55l13.15 9.75 0.149 0.15c0.667 0.567 1.517 1.4 2.55 2.5 0.634 0.633 1.601 1.65 2.9 3.05v0.05zm-37.1 36.1c1.367 0.334 2.7 0.317 4-0.05l-1.15 1.35-1.2 1.35c-0.066 0.033-0.133 0.1-0.2 0.2l-0.35 0.35c-0.267 0.3-0.55 0.617-0.85 0.95-0.267-0.767-0.417-1.566-0.45-2.4v-0.25c-0.034-0.5-0.017-1.017 0.05-1.55 0.033 0 0.083 0.016 0.15 0.05z" fill="#CED1D6"/>
	<path d="m87.75 58.9l1.15-1.351c-1.3 0.367-2.634 0.384-4 0.05 0.4-2.433 1.767-4.966 4.1-7.6 0.434-0.5 0.85-0.95 1.25-1.35 1.8-2.101 2.816-3.284 3.05-3.551 1.367-1.899 2.101-3.683 2.2-5.35 0.033-0.367 0.033-0.717 0-1.05-0.066-1.2-0.4-2.184-1-2.95 0.233-0.433 0.384-1.017 0.45-1.75 1.1-0.6 2.816-1.017 5.149-1.25 0.867-0.067 2.284-0.317 4.25-0.75 1.733-0.367 3.15-0.567 4.25-0.6 2.301 0 3.884-0.033 4.75-0.1 1.767-0.2 3.284-0.6 4.551-1.2 1.866-0.934 3.066-2.133 3.6-3.6 0.333-0.9 0.5-2.567 0.5-5 2.134 2.167 3.866 3.633 5.2 4.4 1.566 0.867 4.267 1.533 8.1 2 3.667 0.434 6.367 1.233 8.101 2.4 0.366 0.233 3.716 2.217 10.05 5.95 0.633 0.367 1.25 0.733 1.85 1.1-0.267-0.133-0.533-0.283-0.8-0.45l-0.55 0.35c-1.367 1-2.351 1.617-2.95 1.85-0.767 0.233-2 0.333-3.7 0.3-1.733-0.033-3.483-0.566-5.25-1.6-2.467-1.433-4.05-2.283-4.75-2.55-1.533-0.533-3.033-0.65-4.5-0.35-1.267 0.233-2.649 0.85-4.149 1.85-2 1.3-3.417 2.067-4.25 2.3-1.233 0.4-2.767 0.35-4.601-0.15-2.366-0.833-4.133-1.4-5.3-1.7-2.033-0.5-3.866-0.333-5.5 0.5-1.634 0.867-3.35 2.35-5.15 4.45-2.399 2.867-3.916 4.583-4.55 5.15-0.333 0.3-1.217 0.983-2.649 2.05-1.101 0.834-1.934 1.567-2.5 2.2-0.367 0.434-0.717 0.967-1.051 1.601l-0.1 0.1c-1.134 1.135-2.884 3.018-5.25 5.651zm79.3-7.4c0.601 1.5 1.3 2.733 2.101 3.7-0.101-0.066-0.184-0.117-0.25-0.15-0.67-0.866-1.28-2.05-1.85-3.55zm-158.35-15.35c0.733-1.267 1.716-2.55 2.95-3.85 1.934-2.033 4.75-4.316 8.45-6.85 5.533-3.833 12.433-7.667 20.7-11.5 4.733-2.2 11.934-5.417 21.6-9.65 5.867-2.7 12.1-4.133 18.7-4.3 7.067-0.167 13.317 1.183 18.75 4.05 0.834 0.434 1.667 0.9 2.5 1.4-2.066 0-3.933 0.25-5.6 0.75-0.134 1.033-0.2 2.8-0.2 5.3-0.033 2.267-0.166 4.017-0.399 5.25-0.367 1.733-0.9 2.767-1.601 3.1-0.267 0.1-1.566 0.183-3.899 0.25-1.5 0.033-3.034 0.5-4.601 1.4-1.867 1.1-3.216 1.75-4.05 1.95-0.9 0.2-2.133 0.15-3.7-0.15-2-0.367-3.233-0.55-3.7-0.55h-5.95c-5.833-0.4-10.217-0.617-13.15-0.65-5.167-0.033-9.35 0.833-12.55 2.6-1.2 0.667-3.7 2.633-7.5 5.9-2.967 2.566-5.684 4.133-8.15 4.7-2.566 0.6-5.617 0.934-9.15 1-1.833 0.033-4.983-0.017-9.45-0.15zm114.25 15.55c-0.434-0.767-0.834-1.667-1.2-2.7-0.733-2.033-1.55-3.583-2.45-4.65-0.767-0.867-1.583-1.417-2.45-1.65 1.767 0.4 3.167 1.867 4.2 4.399 0.9 2.267 1.601 3.917 2.101 4.95-0.07-0.099-0.13-0.216-0.2-0.349zm-76.9-10.6c2.3-1.267 4.567-2.184 6.8-2.75 0.733-0.2 1.583-0.35 2.55-0.45-2.167 0.333-4.283 0.934-6.35 1.8-0.133 0.033-0.25 0.083-0.35 0.15-0.467 0.2-0.917 0.417-1.35 0.65-0.433 0.2-0.867 0.4-1.3 0.6z" fill="#DDDEE0"/>
	<path d="m91.45 59.25c-1.834 1.533-3.117 3.316-3.85 5.35l-0.05 0.25c-0.533 0.467-1.017 0.801-1.45 1-0.233-1.6-0.15-3.25 0.25-4.949 0.033-0.2 0.1-0.417 0.2-0.65l1.2-1.35c2.366-2.634 4.116-4.517 5.25-5.65l0.1-0.1c3.134-3.101 6.101-5.467 8.9-7.101l3.2-1.6c1.066-0.434 2.116-0.8 3.149-1.1 1.334-0.367 2.617-0.633 3.851-0.8h3.6c0.2 0 0.4 0.017 0.601 0.05h0.05l0.399 0.1c0.867 0.233 1.684 0.783 2.45 1.65-1.366 0.7-3.35 1.483-5.95 2.35l-0.35-0.05-2.35-0.551c-3.434 0.134-7 1.534-10.7 4.2-3.233 2.334-5.934 5.117-8.101 8.351l-0.399 0.6zm36.1 0.8c-1.399-0.366-2.25-0.85-2.55-1.45-0.267-0.533-0.384-1.816-0.35-3.85l0.8-0.3c0.333 0.133 0.7 0.217 1.1 0.25h0.351c5.666 0 11.183-1.717 16.55-5.15 2.333-1.533 4.017-2.467 5.05-2.8 1.467-0.434 2.983-0.4 4.55 0.1-1.934 0.801-3.366 1.417-4.3 1.851-1.267 0.566-2.483 1.316-3.65 2.25-0.533 0.399-1.633 1.35-3.3 2.85l-2.6 2.45c-2.167 1.967-3.733 3.3-4.7 4l-0.85 0.55c-0.7 0.2-1.567 0.217-2.601 0.05-1.166-0.267-2.017-0.466-2.55-0.6l-0.95-0.201zm14.8 23.9c0.034-0.033 0.067-0.05 0.101-0.05 1.267-0.967 2.017-2.334 2.25-4.101 0.066-0.467 0-2.184-0.2-5.149-0.134-2.134 0.116-3.717 0.75-4.75 1.434 0.566 2.967 2.316 4.6 5.25 1.467 2.666 3.067 4.083 4.801 4.25 1.1 0.1 2.133 0 3.1-0.301 0.434-0.166 1.35-0.616 2.75-1.35 0.5-0.267 1.283-0.566 2.35-0.9 1.101-0.366 1.884-0.666 2.351-0.899 1.5-0.834 2.333-2.816 2.5-5.95 0.1-1.4-0.017-3.816-0.351-7.25-0.267-2.3-1.066-4.15-2.399-5.55-1.4-1.4-3.25-2.25-5.55-2.55-0.334-1.434-0.067-2.467 0.8-3.101 0.066-0.033 0.149-0.083 0.25-0.149l1.3-0.5c2 1.033 3.816 2.05 5.45 3.05 0.033 0 0.066 0.017 0.1 0.05 0.601 0.533 1.184 1.066 1.75 1.6l0.35 0.3 0.1 0.1c0.9 0.833 1.7 1.65 2.4 2.45 3 3.399 4.399 6.55 4.199 9.45-0.133 1.8-1.883 4.199-5.25 7.199-3.199 2.867-5.833 4.567-7.899 5.101-1.8 0.467-5.05 0.899-9.75 1.3-4.033 0.333-7.3 1-9.8 2l-1.05 0.45zm-47.85-48.2c0.6 0.767 0.934 1.75 1 2.95l-0.2 0.2c-1.467 1.567-2.8 3.85-4 6.85-0.3 0.767-0.649 1.733-1.05 2.9-0.4 0.4-0.816 0.85-1.25 1.35-2.333 2.634-3.7 5.167-4.1 7.6-0.066-0.033-0.117-0.05-0.15-0.05-0.067 0.533-0.083 1.05-0.05 1.55-0.767 0.5-1.767 0.967-3 1.4-1.833 0.667-2.95 1.083-3.35 1.25-1.267 0.6-2.283 1.366-3.05 2.3-0.633 0.767-1.1 1.884-1.4 3.351-0.167 0.8-0.367 2-0.6 3.6-0.367 1.667-0.583 3.583-0.65 5.75-0.033 1.1-0.033 3.017 0 5.75h-0.1c-0.5-4.434-0.833-7.783-1-10.05-0.3-4.066 0-7.3 0.9-9.7 0.6-1.6 1.383-2.884 2.35-3.85 0.5-0.467 1.017-0.784 1.55-0.95 0.833-0.3 1.383-0.517 1.65-0.65 1.633-0.899 2.75-2.083 3.35-3.55 0.5-1.2 0.717-2.866 0.65-5-0.133-3.167-0.35-5.183-0.65-6.05-0.733-2.034-2.3-2.7-4.7-2-0.7 0.2-1.533 0.716-2.5 1.55-0.5 0.467-1.233 1.133-2.2 2-0.833 0.7-1.417 1.15-1.75 1.35-0.534 0.367-1.1 0.65-1.7 0.851-0.433 0.2-0.983 0.35-1.65 0.45l-1.75 0.398c-0.867 0.267-1.733 0.75-2.6 1.45-0.467 0.4-1.05 0.934-1.75 1.6-0.633 0.534-1.35 0.9-2.15 1.101-1.1 0.267-2.483 0.25-4.15-0.05-1.934-0.367-2.967-0.983-3.1-1.851 1.133-0.233 2.367-0.399 3.7-0.5 0.934-0.166 1.9-0.767 2.9-1.8 0.933-1.066 1.65-1.833 2.15-2.3 0.833-0.833 1.683-1.35 2.55-1.55 0.7-0.167 2-0.133 3.9 0.1 1.534 0 2.15-0.683 1.85-2.05-0.167-0.934-0.967-1.6-2.4-2-1.567-0.233-2.567-0.45-3-0.65-1.267-0.533-2.033-1-2.3-1.4 0.1-0.033 0.216-0.05 0.35-0.05 3.7-0.133 6.633-0.333 8.8-0.6h0.2l2.3-0.45c1.7-0.367 4.05-0.933 7.05-1.7 0.067 0 0.133-0.017 0.2-0.05l1.5-0.3 3.15-0.55c2.8-0.367 5.033-0.367 6.7 0 0.399 0.066 0.767 0.167 1.1 0.3l0.351 0.15c0.899 0.367 1.599 0.9 2.099 1.6zm17.4 49.35c-0.434 1.967-0.5 3.367-0.2 4.2-3.233-0.166-6.017-0.75-8.351-1.75l0.051-0.3c0.466-2.434 1.383-4.6 2.75-6.5 0.399-0.566 1.133-1.283 2.199-2.15 1.101-0.866 1.834-1.55 2.2-2.05 0.334-0.434 0.75-1.3 1.25-2.6 0.434-1.2 0.9-2.066 1.4-2.601 0.233 1.467 0.267 3.184 0.1 5.15-0.033 0.533-0.25 2.217-0.649 5.05-0.1 0.868-0.35 2.051-0.75 3.551zm-60.1-4.45c-0.867-2.4-1-6.117-0.4-11.15 2.967-0.167 5.767-0.866 8.4-2.1 1.9-0.867 4.4-2.417 7.5-4.65l1.3 0.65h0.05c0 5.033-1.633 8.55-4.9 10.55-0.133 0.1-1.533 0.6-4.2 1.5-1.767 0.633-2.917 1.5-3.45 2.6-0.3 0.634-0.383 1.667-0.25 3.101-1.3-0.201-2.65-0.368-4.05-0.501zm-7.2-29.5c-0.867 6.933-1.3 11.85-1.3 14.75-0.267-4.934-0.45-8.75-0.55-11.45-0.167-4.9 0.25-8.584 1.25-11.05l0.8-1.55 1.25-0.75c0.434-0.2 0.867-0.4 1.3-0.6-0.3 1-0.733 2.417-1.3 4.25-0.7 2.3-1.133 4.083-1.3 5.35l-0.15 1.05zm-21.35 9.8c-0.4-0.167-0.7-0.983-0.9-2.45-0.067-0.667-0.184-2.134-0.35-4.4-0.067-0.267-0.1-0.666-0.1-1.199-0.133-1.4-0.3-2.301-0.5-2.7h2.05c1.2 0 2.417-0.101 3.65-0.3-0.2 0.399-0.383 0.783-0.55 1.149-0.533 1.233-1.117 2.867-1.75 4.9-0.833 2.767-1.35 4.434-1.55 5z" fill="#504A3F"/>
	<path d="m125.45 54.45l-0.8 0.3c-0.034 2.033 0.083 3.316 0.35 3.85 0.3 0.601 1.15 1.084 2.55 1.45l-1 0.15c-2.434 0.566-5.066 1.616-7.899 3.149-1.567 0.834-3.983 2.317-7.25 4.45-0.134-0.399-0.2-0.883-0.2-1.45 0.033-2.199 1.633-4.933 4.8-8.199 1.333-1.4 2.917-2.884 4.75-4.45l2.2-2c0.066 0.133 0.133 0.25 0.2 0.35 0.333 0.667 0.566 1.084 0.699 1.25 0.43 0.533 0.97 0.917 1.6 1.15zm16.9 29.5l-5.149 2.1 0.149-0.1h0.051c0-0.033 0.017-0.05 0.05-0.05l0.05-0.051c0.134-0.1 0.267-0.183 0.4-0.25l2.4-2.599c0-0.066 0.017-0.116 0.05-0.15 0.801-1.333 1.301-2.683 1.5-4.05-0.1-3-0.166-5.383-0.199-7.149-0.101-3.233 0.466-5.317 1.699-6.25 2.301 1.066 4.134 3.083 5.5 6.05 0.167 0.366 0.384 1.066 0.65 2.1 0.267 0.9 0.634 1.483 1.1 1.75 1.334 0.834 2.4 0.75 3.2-0.25l1.5-2.95c0.767-1.433 1.267-2.466 1.5-3.1 0.367-0.967 0.533-2.15 0.5-3.55-0.066-1.767-0.366-3.233-0.899-4.4-0.601-1.333-1.584-2.517-2.95-3.55-2.033-1.5-4.283-1.667-6.75-0.5-0.7 0.333-1.75 0.9-3.15 1.7-1.3 0.733-2.434 1.2-3.399 1.399-1.301 0.301-3.184 0.351-5.65 0.15 0.967-0.7 2.533-2.033 4.7-4l2.6-2.45c1.667-1.5 2.767-2.45 3.3-2.85 1.167-0.934 2.384-1.684 3.65-2.25 0.934-0.434 2.366-1.05 4.3-1.851 0.3 0.101 0.601 0.217 0.9 0.351 2.833 1.267 5.434 2.5 7.8 3.7l-1.3 0.5c-0.101 0.066-0.184 0.116-0.25 0.149-0.867 0.634-1.134 1.667-0.8 3.101 2.3 0.3 4.149 1.149 5.55 2.55 1.333 1.399 2.133 3.25 2.399 5.55 0.334 3.434 0.45 5.85 0.351 7.25-0.167 3.134-1 5.116-2.5 5.95-0.467 0.233-1.25 0.533-2.351 0.899-1.066 0.334-1.85 0.634-2.35 0.9-1.4 0.733-2.316 1.184-2.75 1.35-0.967 0.301-2 0.4-3.1 0.301-1.733-0.167-3.334-1.584-4.801-4.25-1.633-2.934-3.166-4.684-4.6-5.25-0.634 1.033-0.884 2.616-0.75 4.75 0.2 2.966 0.267 4.683 0.2 5.149-0.233 1.767-0.983 3.134-2.25 4.101-0.03 0-0.07 0.017-0.1 0.05zm-86.95-46.05c0.1-0.033 0.2-0.05 0.3-0.05 1.433-0.233 3.1-0.383 5-0.45 0.267 0.4 1.033 0.867 2.3 1.4 0.433 0.2 1.433 0.417 3 0.65 1.433 0.4 2.233 1.066 2.4 2 0.3 1.367-0.316 2.05-1.85 2.05-1.9-0.233-3.2-0.267-3.9-0.1-0.867 0.2-1.717 0.717-2.55 1.55-0.5 0.467-1.217 1.233-2.15 2.3-1 1.033-1.967 1.634-2.9 1.8-1.333 0.101-2.566 0.267-3.7 0.5 0.133 0.867 1.167 1.483 3.1 1.851 1.667 0.3 3.05 0.316 4.15 0.05 0.8-0.2 1.517-0.566 2.15-1.101 0.7-0.666 1.283-1.199 1.75-1.6 0.867-0.7 1.733-1.184 2.6-1.45-0.967 0.5-2.033 1.267-3.2 2.3-0.333 0.267-1.2 1.051-2.6 2.351-0.733 0.666-1.433 1.166-2.1 1.5-0.667 0.3-1.5 0.517-2.5 0.649-1.633-0.1-2.85-0.149-3.65-0.149-1.466-0.033-2.45 0.383-2.95 1.25-0.2 0.366-0.467 2.05-0.8 5.05-0.033 0.332-0.133 1.249-0.3 2.749-0.1 1.066-0.217 1.967-0.35 2.7l-0.15 0.9c-1.367 5.434-3.25 8.117-5.65 8.051 2.1-2.467 3.333-5.467 3.7-9 0.067-0.5 0.1-3.867 0.1-10.101l-0.05-4.4 0.15-1.051c0.167-1.267 0.6-3.05 1.3-5.35 0.567-1.833 1-3.25 1.3-4.25 0.433-0.233 0.883-0.45 1.35-0.65-0.034 0.1-0.05 0.217-0.05 0.35-0.066 0.566-0.283 1.4-0.65 2.5-0.233 1.033-0.25 1.95-0.05 2.75 0.633 2.333 2.7 3.217 6.2 2.649 1.333-0.199 2.367-0.767 3.1-1.699 0.8-1 1.067-2.234 0.8-3.7-0.133-0.6-0.466-1.25-1-1.95-0.667-0.767-1.117-1.333-1.35-1.7-0.267-0.399-0.367-0.782-0.3-1.149zm6.65 44.45l-1.25-0.25c-0.933-0.233-1.917-0.433-2.95-0.6-0.133-0.033-0.25-0.05-0.35-0.05-0.533-0.101-1.083-0.2-1.65-0.3-0.133-1.434-0.05-2.467 0.25-3.101 0.533-1.1 1.683-1.967 3.45-2.6 2.667-0.9 4.067-1.4 4.2-1.5 3.267-2 4.9-5.517 4.9-10.55h-0.05l0.2-0.15c1.934-1.566 3.25-3.7 3.95-6.4 0.767-2.899 0.533-5.449-0.7-7.649-0.966-1.667-2.15-2.584-3.55-2.75 0.6-0.2 1.167-0.483 1.7-0.851 0.333-0.199 0.917-0.649 1.75-1.35 0.966-0.867 1.7-1.533 2.2-2 0.967-0.833 1.8-1.35 2.5-1.55 2.4-0.7 3.967-0.034 4.7 2 0.3 0.867 0.517 2.883 0.65 6.05 0.067 2.134-0.15 3.8-0.65 5-0.6 1.467-1.717 2.65-3.35 3.55-0.267 0.134-0.817 0.351-1.65 0.65-0.533 0.166-1.05 0.483-1.55 0.95-0.966 0.966-1.75 2.25-2.35 3.85-0.9 2.4-1.2 5.634-0.9 9.7 0.167 2.267 0.5 5.616 1 10.05l-0.55 0.101-0.55 0.051c0-0.867-0.05-1.5-0.15-1.9-0.6-3.2-2.383-4.566-5.35-4.1-2.967 0.432-4.267 2.332-3.9 5.699zm19.65-21.85c-0.667 1.267-1.167 2.583-1.5 3.95-0.333 1.3-0.684 3.166-1.05 5.6-0.333 2.467-0.5 5.467-0.5 9l0.15 2.75-6.15 0.7c-0.033-2.733-0.033-4.65 0-5.75 0.067-2.167 0.283-4.083 0.65-5.75 0.233-1.6 0.434-2.8 0.6-3.6 0.3-1.467 0.767-2.584 1.4-3.351 0.767-0.934 1.784-1.7 3.05-2.3 0.4-0.166 1.517-0.582 3.35-1.249zm13.8-21.8c0.033 0.333 0.033 0.683 0 1.05-0.1 1.667-0.833 3.45-2.2 5.35-0.233 0.267-1.25 1.45-3.05 3.551 0.4-1.167 0.75-2.134 1.05-2.9 1.2-3 2.533-5.283 4-6.85l0.2-0.201zm25.95 50.5c-4.367 0.166-7.617 0.2-9.75 0.1-0.3-0.833-0.233-2.233 0.2-4.2 1.133-0.399 1.767-1.283 1.899-2.649-0.033-1.8 0.05-3.25 0.25-4.351 4.634-0.199 7.334-0.399 8.101-0.6 2.233-0.634 4.383-2.333 6.449-5.1-0.233 0.433-0.5 1.283-0.8 2.55-0.267 1.066-0.649 1.899-1.149 2.5-0.4 0.533-1.334 1.2-2.801 2-1.433 0.767-2.316 1.416-2.649 1.95-0.566 0.933-0.75 2.55-0.55 4.85 0.1 1.467 0.37 2.45 0.8 2.95zm-34.15-18.55c-0.433 0.5-0.9 0.833-1.4 1-1.1-1.467-1.316-4-0.65-7.601 0.2-1.033 0.45-2.116 0.75-3.25l0.35-0.35c0.066-0.101 0.133-0.167 0.2-0.2-0.1 0.233-0.167 0.45-0.2 0.65-0.4 1.699-0.483 3.35-0.25 4.949 0.433-0.199 0.917-0.533 1.45-1-0.6 1.802-0.683 3.735-0.25 5.802zm-56.8-21.5c-2.067 3.5-4.15 8.267-6.25 14.3l-0.9 2.6-0.05-2.6-0.05-2.5c0.2-0.566 0.717-2.233 1.55-5 0.633-2.033 1.217-3.667 1.75-4.9 0.167-0.366 0.35-0.75 0.55-1.149 0.066 0 0.15-0.017 0.25-0.051l2.6-0.55c0.133-0.033 0.267-0.066 0.4-0.1 0.033 0 0.083-0.016 0.15-0.05z" fill="#635B4F"/>
	<path d="m72 82.6l0.55-0.1h0.1l6.15-0.7-0.15-2.75c0-3.533 0.167-6.533 0.5-9 0.367-2.434 0.717-4.3 1.05-5.6 0.367-0.7 0.917-1.434 1.65-2.2 0.933-0.9 1.683-1.65 2.25-2.25l0.6-0.65c0.033 0.834 0.183 1.634 0.45 2.4 0.3-0.333 0.583-0.65 0.85-0.95-0.3 1.134-0.55 2.217-0.75 3.25-0.667 3.601-0.45 6.134 0.65 7.601 0.5-0.167 0.967-0.5 1.4-1 0.167 0.767 0.383 1.366 0.65 1.8l-0.15 1.5c0.8 0.1 2.65 0.399 5.55 0.899 2.667 0.4 4.4 0.417 5.2 0.051 1.367-0.601 2.434-2.233 3.2-4.9 1.1-3.733 1.733-5.767 1.9-6.1 0.933-1.7 2.033-2.884 3.3-3.551 0.8-0.399 2.25-0.933 4.35-1.6 1.634-0.6 3.65-2 6.05-4.2 1-0.934 1.601-1.866 1.801-2.8 0.1-0.4 0.149-1.616 0.149-3.65l-6.3-1.45 0.35 0.05c2.601-0.867 4.584-1.65 5.95-2.35 0.9 1.067 1.717 2.617 2.45 4.65 0.366 1.033 0.767 1.934 1.2 2.7l-2.2 2c-1.667 0.967-3.25 2.45-4.75 4.45-3.167 3.267-4.767 6-4.8 8.199l-2.8 6.25c-2.134 4.667-3.95 9.584-5.45 14.75l0.149 0.101c-0.066-0.033-0.133-0.066-0.199-0.101-5.067-2.333-8.65-3.816-10.75-4.449-3.7-1.101-7.617-1.5-11.75-1.2-3.533 0.4-6.333 0.7-8.4 0.9zm50.4 6.6c-4.467 0.166-7.784 0.217-9.95 0.149-3.634-0.133-6.717-0.75-9.25-1.85l0.2-0.25-0.051 0.3c2.334 1 5.117 1.584 8.351 1.75 2.133 0.101 5.383 0.066 9.75-0.1h0.95zm12.15-2.15c-0.6 0.2-1.033 0.351-1.3 0.45-1.066 0.366-2.15 0.667-3.25 0.9 0.366-0.101 0.717-0.2 1.05-0.301l0.101-0.05c0.533-0.2 1.433-0.467 2.699-0.8 0.2-0.065 0.43-0.133 0.7-0.199zm-72.5-4.7c0.034 0 0.05 0.017 0.05 0.051-0.434-0.101-0.867-0.2-1.3-0.301l1.25 0.25zm-59.35-16.75c0.933-0.166 2.066-0.433 3.4-0.8 0.733-0.2 1.783-0.483 3.15-0.85 0.533-4.167 0.6-6.8 0.2-7.9-0.533-1.366-2.183-3.083-4.95-5.15 1.1-2.267 2.05-4.217 2.85-5.851 0.267 0.733 0.683 1.4 1.25 2l1.95 1.45c0.467 0.233 0.983 0.45 1.55 0.65l0.5 0.149c0.233 0.066 0.483 0.134 0.75 0.2s0.566 0.134 0.9 0.2c-0.1 0.3-0.183 0.649-0.25 1.05-0.133 1-0.167 2-0.1 3 0.067 1.2 0.3 2.15 0.7 2.85 0.533 0.934 1.667 1.601 3.4 2 1.767 0.4 2.85 0.934 3.25 1.601 0.633 1.066 0.333 2.383-0.9 3.95-0.667 0.866-1.6 2-2.8 3.399-0.566 1.101-1.066 1.917-1.5 2.45-0.4 0.467-1.066 1.15-2 2.05-0.333 0.334-0.566 0.601-0.7 0.8 1.433 0.101 2.717 0.317 3.85 0.65 0.066-1.833 0.517-3.483 1.35-4.95 0.4-0.7 1.1-1.467 2.1-2.3 1.1-0.9 1.833-1.616 2.2-2.15 0.2-0.166 0.35-0.383 0.45-0.649l0.05 2.6 0.9-2.6c2.1-6.033 4.183-10.8 6.25-14.3 0.167-0.034 0.333-0.084 0.5-0.15 0.067-0.033 0.15-0.066 0.25-0.1l0.8-0.25c0.267-0.134 0.55-0.25 0.85-0.351 0.267-0.1 0.55-0.217 0.85-0.35 0.167-0.066 0.317-0.134 0.45-0.2 2.566-1.1 5.833-2.917 9.8-5.45l0.35-0.2c0.133-0.1 0.283-0.184 0.45-0.25l-0.8 1.552c-1 2.466-1.417 6.15-1.25 11.05 0.1 2.7 0.283 6.517 0.55 11.45 0-2.9 0.434-7.817 1.3-14.75l0.05 4.399c0 6.233-0.033 9.601-0.1 10.101-0.367 3.533-1.6 6.533-3.7 9 2.4 0.066 4.283-2.617 5.65-8.051l0.15-0.899v0.75c0.033 2.267-0.217 3.916-0.75 4.95-0.566 1.166-1.767 2.3-3.6 3.399-3.466 2.066-6.083 3.851-7.85 5.351-0.934-0.034-1.583-0.067-1.95-0.101-2.967-0.333-5.6-1.267-7.9-2.8l0.2 0.1c0.167-0.399 0.383-1.066 0.65-2 0.233 1.167 0.8 1.867 1.7 2.101 0.367 0.066 1.533 0.05 3.5-0.05 3-0.134 5.184-1.017 6.55-2.65 1.167-1.4 1.883-3.684 2.15-6.85 0.167-2.4 0.167-5.217 0-8.45-0.067-1.167-0.517-2.601-1.35-4.3-0.833-1.767-1.283-3.017-1.35-3.75l-4.65 2-1.15 1.4c-1.2 0.601-2.1 1.351-2.7 2.25-0.167 0.233-0.833 1.483-2 3.75-1.167 2.233-1.883 4.434-2.15 6.601-0.067 0.666-0.283 2.033-0.65 4.1-0.267 2.033-0.333 3.634-0.2 4.8-2.3-1.434-4.316-2.366-6.05-2.8-1.833-0.5-4.717-0.767-8.65-0.8l-6.55-5.701 0.1-0.1 0.7-1.3zm1.35-13.85c-0.167 0.366-0.333 0.733-0.5 1.1l0.3-0.699c0.067-0.134 0.133-0.267 0.2-0.401zm44.65-11.9c0.1-0.067 0.216-0.117 0.35-0.15-0.133 0.167-0.267 0.333-0.4 0.5 0-0.133 0.017-0.25 0.05-0.35z" fill="#797061"/>
	<path d="m87.95 72.45l0.149 0.3c1.167-0.667 2.15-2.134 2.95-4.4 0.8-2.233 1.767-3.666 2.9-4.3 0.467-0.233 1.283-0.35 2.45-0.35 1.133 0.033 1.883-0.05 2.25-0.25 0.733-0.334 1.116-0.7 1.149-1.101l0.15-1.6c0.934-2.667 3.166-5.4 6.7-8.2l2.6-2.05c0.767-0.833 1.017-1.866 0.75-3.1l-12.7 8c-2.833 1.699-4.783 2.983-5.85 3.85l0.399-0.6c2.167-3.233 4.867-6.017 8.101-8.351 3.7-2.666 7.267-4.066 10.7-4.2l2.35 0.552 6.3 1.449c0 2.034-0.05 3.25-0.149 3.65-0.2 0.934-0.801 1.866-1.801 2.8-2.399 2.2-4.416 3.601-6.05 4.2-2.1 0.667-3.55 1.2-4.35 1.6-1.267 0.667-2.367 1.851-3.3 3.551-0.167 0.333-0.801 2.366-1.9 6.1-0.767 2.667-1.833 4.3-3.2 4.9-0.8 0.366-2.533 0.35-5.2-0.051-2.899-0.5-4.75-0.8-5.55-0.899l0.15-1.5zm-83.45-21.55c2.767 2.066 4.417 3.783 4.95 5.149 0.4 1.101 0.333 3.733-0.2 7.9-1.367 0.367-2.417 0.651-3.15 0.851-1.333 0.367-2.467 0.634-3.4 0.8 0.233-0.5 0.566-1.366 1-2.6 0.4-1.134 0.733-1.95 1-2.45 0.667-1.133 1.2-2.083 1.6-2.85 0.767-1.434 1.1-2.467 1-3.101-0.133-0.833-0.5-1.483-1.1-1.949-0.5-0.367-1.217-0.667-2.15-0.9l0.4-0.9 0.05 0.05zm26.35 3.9l1.15-1.4 4.65-2c0.067 0.733 0.517 1.983 1.35 3.75 0.833 1.699 1.283 3.133 1.35 4.3 0.167 3.233 0.167 6.05 0 8.45-0.267 3.166-0.983 5.449-2.15 6.85-1.367 1.634-3.55 2.517-6.55 2.65-1.967 0.1-3.133 0.116-3.5 0.05-0.9-0.233-1.467-0.934-1.7-2.101 0.267-0.899 0.617-2.25 1.05-4.05 0.433-1.833 0.767-3.116 1-3.85 0.1-0.334 0.333-1.434 0.7-3.3 0.233-1.233 0.583-2.284 1.05-3.15 0.967-1.934 1.75-3.434 2.35-4.5 0.967-1.733 1.9-2.917 2.8-3.55l-1.75 1.151-1.8 0.7z" fill="#867B6C"/>
	<path d="m127.55 60.05l0.95 0.2c0.533 0.134 1.384 0.333 2.55 0.6 1.033 0.167 1.9 0.15 2.601-0.05l0.85-0.55c2.467 0.2 4.35 0.15 5.65-0.15 0.966-0.199 2.1-0.666 3.399-1.399 1.4-0.8 2.45-1.367 3.15-1.7 2.467-1.167 4.717-1 6.75 0.5 1.366 1.033 2.35 2.217 2.95 3.55 0.533 1.167 0.833 2.634 0.899 4.4 0.033 1.399-0.133 2.583-0.5 3.55-0.233 0.634-0.733 1.667-1.5 3.1l-1.5 2.95c-0.8 1-1.866 1.084-3.2 0.25-0.466-0.267-0.833-0.85-1.1-1.75-0.267-1.033-0.483-1.733-0.65-2.1-1.366-2.967-3.199-4.983-5.5-6.05-1.233 0.933-1.8 3.017-1.699 6.25 0.033 1.767 0.1 4.149 0.199 7.149-0.199 1.367-0.699 2.717-1.5 4.05-0.033 0.034-0.05 0.084-0.05 0.15l-2.399 2.6c-0.134 0.067-0.267 0.15-0.4 0.25l-0.05 0.051c-0.033 0-0.05 0.017-0.05 0.05h-0.051l-0.149 0.1c-1.033 0.4-1.917 0.733-2.65 1-0.267 0.066-0.5 0.134-0.7 0.2-1.267 0.333-2.166 0.6-2.699 0.8l-0.101 0.05c-0.333 0.101-0.684 0.2-1.05 0.301l-1.05 0.199-6.55 0.599h-0.95c-0.434-0.5-0.7-1.483-0.8-2.95-0.2-2.3-0.017-3.917 0.55-4.85 0.333-0.534 1.217-1.184 2.649-1.95 1.467-0.8 2.4-1.467 2.801-2 0.5-0.601 0.883-1.434 1.149-2.5 0.3-1.267 0.566-2.117 0.8-2.55-2.066 2.767-4.216 4.466-6.449 5.1-0.767 0.2-3.467 0.4-8.101 0.6-0.2 1.101-0.283 2.551-0.25 4.351-0.133 1.366-0.767 2.25-1.899 2.649 0.399-1.5 0.649-2.683 0.75-3.55 0.399-2.833 0.616-4.517 0.649-5.05 0.167-1.967 0.134-3.684-0.1-5.15-0.5 0.534-0.967 1.4-1.4 2.601-0.5 1.3-0.916 2.166-1.25 2.6-0.366 0.5-1.1 1.184-2.2 2.05-1.066 0.867-1.8 1.584-2.199 2.15-1.367 1.9-2.284 4.066-2.75 6.5l-0.2 0.25-0.101-0.05-0.149-0.101c1.5-5.166 3.316-10.083 5.45-14.75l2.8-6.25c0 0.567 0.066 1.051 0.2 1.45 3.267-2.133 5.683-3.616 7.25-4.45 2.833-1.533 5.466-2.583 7.899-3.149l1-0.151zm-93.1 20.1c1.767-1.5 4.383-3.284 7.85-5.351 1.833-1.1 3.034-2.233 3.6-3.399 0.533-1.034 0.783-2.684 0.75-4.95v-0.75c0.133-0.733 0.25-1.634 0.35-2.7 0.167-1.5 0.267-2.417 0.3-2.75 0.333-3 0.6-4.684 0.8-5.05 0.5-0.867 1.483-1.283 2.95-1.25 0.8 0 2.017 0.05 3.65 0.149 1-0.133 1.833-0.35 2.5-0.649 0.667-0.334 1.367-0.834 2.1-1.5 1.4-1.3 2.267-2.084 2.6-2.351 1.167-1.033 2.233-1.8 3.2-2.3l1.75-0.399c0.667-0.101 1.217-0.25 1.65-0.45 1.4 0.166 2.583 1.083 3.55 2.75 1.233 2.2 1.467 4.75 0.7 7.649-0.7 2.7-2.017 4.834-3.95 6.4l-0.2 0.15-1.3-0.65c-3.1 2.233-5.6 3.783-7.5 4.65-2.633 1.233-5.433 1.933-8.4 2.1-0.6 5.033-0.467 8.75 0.4 11.15-3.167-0.301-6.633-0.45-10.4-0.45h-1.05c-3.267 1e-3 -5.233-0.015-5.9-0.049zm45.75-15.7c0.333-1.367 0.833-2.684 1.5-3.95 1.233-0.434 2.233-0.9 3-1.4v0.25l-0.6 0.65c-0.567 0.6-1.317 1.35-2.25 2.25-0.733 0.767-1.283 1.5-1.65 2.2zm40.55-10.75c-1.833 1.566-3.417 3.05-4.75 4.45 1.5-2 3.08-3.483 4.75-4.45zm-58.65 28.7c0-0.034-0.017-0.051-0.05-0.051-0.367-3.366 0.934-5.267 3.9-5.699 2.966-0.467 4.75 0.899 5.35 4.1 0.1 0.4 0.15 1.033 0.15 1.9-0.534 0.033-1.034 0.066-1.5 0.1l-0.4 0.05-6.7-0.3c-0.1 0-0.2-0.017-0.3-0.05l-0.25-0.05h-0.2zm-13.45-42.2c0.133-0.167 0.267-0.333 0.4-0.5 2.067-0.867 4.184-1.467 6.35-1.8-0.066 0.367 0.033 0.75 0.3 1.15 0.233 0.367 0.683 0.934 1.35 1.7 0.534 0.7 0.867 1.35 1 1.95 0.267 1.466 0 2.7-0.8 3.7-0.733 0.933-1.767 1.5-3.1 1.699-3.5 0.567-5.566-0.316-6.2-2.649-0.2-0.8-0.184-1.717 0.05-2.75 0.367-1.1 0.583-1.933 0.65-2.5zm-25.35 23.25c-0.1 0.267-0.25 0.483-0.45 0.649-0.367 0.534-1.1 1.25-2.2 2.15-1 0.833-1.7 1.6-2.1 2.3-0.833 1.467-1.283 3.117-1.35 4.95-1.133-0.333-2.417-0.55-3.85-0.65 0.133-0.199 0.367-0.466 0.7-0.8 0.934-0.899 1.6-1.583 2-2.05 0.434-0.533 0.934-1.35 1.5-2.45 1.2-1.399 2.133-2.533 2.8-3.399 1.233-1.567 1.533-2.884 0.9-3.95-0.4-0.667-1.483-1.2-3.25-1.6-1.733-0.399-2.867-1.066-3.4-2-0.4-0.699-0.633-1.649-0.7-2.85-0.066-1-0.033-2 0.1-3 0.067-0.4 0.15-0.75 0.25-1.05 0.6 0.1 1.317 0.184 2.15 0.25l5 0.25c0.2 0.399 0.367 1.3 0.5 2.7 0 0.533 0.033 0.933 0.1 1.199 0.167 2.267 0.283 3.733 0.35 4.4 0.2 1.467 0.5 2.283 0.9 2.45l0.05 2.501z" fill="#706759"/>
	<path d="m87.3 70.65c-0.433-2.067-0.35-4 0.25-5.801l0.05-0.25c0.733-2.033 2.016-3.816 3.85-5.35 1.066-0.866 3.017-2.15 5.85-3.85l12.7-8c0.267 1.233 0.017 2.267-0.75 3.1l-2.6 2.05c-3.534 2.8-5.767 5.533-6.7 8.2l-0.15 1.6c-0.033 0.4-0.416 0.767-1.149 1.101-0.367 0.2-1.117 0.283-2.25 0.25-1.167 0-1.983 0.116-2.45 0.35-1.134 0.634-2.101 2.066-2.9 4.3-0.8 2.267-1.783 3.733-2.95 4.4l-0.149-0.3c-0.269-0.433-0.485-1.033-0.652-1.8zm-62.7 6.6l-0.9-0.6c-0.2-0.134-0.383-0.25-0.55-0.351-0.133-1.166-0.066-2.767 0.2-4.8 0.367-2.066 0.583-3.434 0.65-4.1 0.267-2.167 0.983-4.367 2.15-6.601 1.167-2.267 1.833-3.517 2-3.75 0.6-0.899 1.5-1.649 2.7-2.25l1.8-0.7 1.75-1.149c-0.9 0.633-1.833 1.816-2.8 3.55-0.6 1.066-1.383 2.566-2.35 4.5-0.467 0.866-0.817 1.917-1.05 3.15-0.367 1.866-0.6 2.966-0.7 3.3-0.233 0.733-0.567 2.017-1 3.85-0.433 1.8-0.783 3.15-1.05 4.05-0.267 0.934-0.483 1.601-0.65 2l-0.2-0.099zm-21.9-11.65l-0.7 1.3-0.1 0.1-1.85-1.6c-0.233-2.167 0.65-5.667 2.65-10.5l0.85-2.051c0.167-0.366 0.333-0.733 0.5-1.1 0.934 0.233 1.65 0.533 2.15 0.9 0.6 0.466 0.966 1.116 1.1 1.949 0.1 0.634-0.233 1.667-1 3.101-0.4 0.767-0.933 1.717-1.6 2.85-0.267 0.5-0.6 1.316-1 2.45-0.433 1.234-0.767 2.101-1 2.601z" fill="#A19581"/>
</g>
</svg>
