<svg id="Layer_1" data-name="Layer 1" xmlns="http://www.w3.org/2000/svg" xmlns:xlink="http://www.w3.org/1999/xlink" viewBox="0 0 999.46 300.54"><defs><style>.cls-1{fill:url(#linear-gradient);}.cls-2{fill:url(#linear-gradient-2);}.cls-3{fill:url(#linear-gradient-3);}.cls-4{fill:url(#linear-gradient-4);}.cls-5{fill:url(#linear-gradient-5);}.cls-6{fill:url(#linear-gradient-6);}.cls-7{fill:url(#linear-gradient-7);}.cls-8{fill:url(#linear-gradient-8);}.cls-9{fill:url(#linear-gradient-9);}.cls-10{fill:url(#linear-gradient-10);}.cls-11{fill:url(#linear-gradient-11);}.cls-12{fill:url(#linear-gradient-12);}.cls-13{fill:url(#linear-gradient-13);}.cls-14{fill:url(#radial-gradient);}.cls-15{opacity:0.75;isolation:isolate;fill:url(#radial-gradient-2);}.cls-16{fill:url(#radial-gradient-3);}.cls-17{fill:url(#radial-gradient-4);}.cls-18{fill:url(#radial-gradient-5);}.cls-19{fill:url(#radial-gradient-6);}.cls-20{fill:url(#radial-gradient-7);}.cls-21{fill:url(#radial-gradient-8);}.cls-22{fill:url(#radial-gradient-9);}.cls-23{fill:url(#radial-gradient-10);}.cls-24{fill:url(#radial-gradient-11);}.cls-25{fill:url(#radial-gradient-12);}.cls-26{fill:url(#radial-gradient-13);}.cls-27{fill:url(#radial-gradient-14);}.cls-28{fill:url(#radial-gradient-15);}.cls-29{fill:url(#radial-gradient-16);}.cls-30{fill:url(#radial-gradient-17);}.cls-31{fill:url(#radial-gradient-18);}.cls-32{fill:url(#radial-gradient-19);}.cls-33{fill:url(#radial-gradient-20);}.cls-34{fill:url(#radial-gradient-21);}.cls-35{fill:url(#radial-gradient-22);}.cls-36{fill:url(#radial-gradient-23);}.cls-37{fill:url(#radial-gradient-24);}.cls-38{fill:url(#radial-gradient-25);}.cls-39{fill:url(#radial-gradient-26);}.cls-40{fill:url(#radial-gradient-27);}.cls-41{fill:url(#radial-gradient-28);}.cls-42{fill:url(#radial-gradient-29);}.cls-43{fill:url(#radial-gradient-30);}.cls-44{fill:url(#radial-gradient-31);}.cls-45{fill:url(#radial-gradient-32);}.cls-46{fill:url(#radial-gradient-33);}.cls-47{fill:url(#radial-gradient-34);}.cls-48{fill:url(#radial-gradient-35);}.cls-49{fill:url(#radial-gradient-36);}.cls-50{fill:url(#radial-gradient-37);}.cls-51{fill:#fff;}</style><linearGradient id="linear-gradient" x1="900.26" y1="50.82" x2="871.2" y2="146.98" gradientTransform="matrix(1, 0, 0, -1, 0, 300.72)" gradientUnits="userSpaceOnUse"><stop offset="0" stop-color="#fff"/><stop offset="0.11" stop-color="#f6f8fa" stop-opacity="0.89"/><stop offset="0.25" stop-color="#e4eaec" stop-opacity="0.75"/><stop offset="0.42" stop-color="#c9dade" stop-opacity="0.58"/><stop offset="0.61" stop-color="#a2c4cb" stop-opacity="0.39"/><stop offset="0.8" stop-color="#72abb6" stop-opacity="0.2"/><stop offset="1" stop-color="#2894a0" stop-opacity="0"/></linearGradient><linearGradient id="linear-gradient-2" x1="653.72" y1="-9.38" x2="609.81" y2="186.94" xlink:href="#linear-gradient"/><linearGradient id="linear-gradient-3" x1="500.32" y1="14.84" x2="500.32" y2="135.21" gradientTransform="matrix(1, 0, 0, -1, 0, 300.72)" gradientUnits="userSpaceOnUse"><stop offset="0" stop-color="#2894a0"/><stop offset="1" stop-color="#232e50"/></linearGradient><linearGradient id="linear-gradient-4" x1="140.85" y1="102.03" x2="128.11" y2="125.78" gradientTransform="matrix(1, 0, 0, -1, 0, 300.72)" gradientUnits="userSpaceOnUse"><stop offset="0" stop-color="#232e50" stop-opacity="0"/><stop offset="0.25" stop-color="#274a65" stop-opacity="0.25"/><stop offset="0.6" stop-color="#2d6f83" stop-opacity="0.6"/><stop offset="0.86" stop-color="#298997" stop-opacity="0.86"/><stop offset="1" stop-color="#2894a0"/></linearGradient><linearGradient id="linear-gradient-5" x1="288.05" y1="60.42" x2="260.65" y2="117.14" gradientTransform="matrix(1, 0, 0, -1, 0, 300.72)" gradientUnits="userSpaceOnUse"><stop offset="0" stop-color="#232e50" stop-opacity="0"/><stop offset="1" stop-color="#2894a0"/></linearGradient><linearGradient id="linear-gradient-6" x1="444.69" y1="73.41" x2="421.52" y2="97.92" xlink:href="#linear-gradient-5"/><linearGradient id="linear-gradient-7" x1="529.16" y1="102.3" x2="516.76" y2="119.8" xlink:href="#linear-gradient-5"/><linearGradient id="linear-gradient-8" x1="628.64" y1="87.55" x2="601.04" y2="124.73" xlink:href="#linear-gradient-5"/><linearGradient id="linear-gradient-9" x1="799.78" y1="62.49" x2="826.61" y2="99.4" xlink:href="#linear-gradient-5"/><linearGradient id="linear-gradient-10" x1="910.32" y1="94.22" x2="931.38" y2="123.2" xlink:href="#linear-gradient-5"/><linearGradient id="linear-gradient-11" x1="137.45" y1="23.58" x2="137.45" y2="53.2" xlink:href="#linear-gradient-3"/><linearGradient id="linear-gradient-12" x1="892.92" y1="25.72" x2="892.92" y2="52.06" xlink:href="#linear-gradient-3"/><linearGradient id="linear-gradient-13" x1="500.32" y1="66.74" x2="500.32" y2="11.7" gradientTransform="matrix(1, 0, 0, -1, -0.65, 300.72)" xlink:href="#linear-gradient-3"/><radialGradient id="radial-gradient" cx="281.32" cy="-132.15" r="288.73" gradientTransform="matrix(1, 0, 0, -0.74, -0.65, 182.46)" gradientUnits="userSpaceOnUse"><stop offset="0" stop-color="#3db54a"/><stop offset="0.09" stop-color="#39ac4d" stop-opacity="0.91"/><stop offset="0.27" stop-color="#319659" stop-opacity="0.73"/><stop offset="0.5" stop-color="#2d7969" stop-opacity="0.5"/><stop offset="0.79" stop-color="#28556f" stop-opacity="0.21"/><stop offset="1" stop-color="#283471" stop-opacity="0"/></radialGradient><radialGradient id="radial-gradient-2" cx="445.12" cy="-131.25" r="123.18" gradientTransform="matrix(1, 0, 0, -0.93, -0.65, 153.78)" xlink:href="#linear-gradient"/><radialGradient id="radial-gradient-3" cx="27.28" cy="-95.75" r="1.93" gradientTransform="matrix(1, 0, 0, -0.93, -0.65, 153.78)" gradientUnits="userSpaceOnUse"><stop offset="0" stop-color="#fff"/><stop offset="1" stop-color="#232e50" stop-opacity="0"/></radialGradient><radialGradient id="radial-gradient-4" cx="43.32" cy="-93.82" r="1.93" xlink:href="#radial-gradient-3"/><radialGradient id="radial-gradient-5" cx="57.39" cy="-100.45" r="1.93" xlink:href="#radial-gradient-3"/><radialGradient id="radial-gradient-6" cx="66.1" cy="-99.61" r="1.93" xlink:href="#radial-gradient-3"/><radialGradient id="radial-gradient-7" cx="50.65" cy="-97.68" r="1.93" xlink:href="#radial-gradient-3"/><radialGradient id="radial-gradient-8" cx="79.27" cy="-100.02" r="1.93" xlink:href="#radial-gradient-3"/><radialGradient id="radial-gradient-9" cx="74.22" cy="-96.59" r="1.93" xlink:href="#radial-gradient-3"/><radialGradient id="radial-gradient-10" cx="88.27" cy="-100.02" r="1.93" xlink:href="#radial-gradient-3"/><radialGradient id="radial-gradient-11" cx="96.49" cy="-101.54" r="1.93" xlink:href="#radial-gradient-3"/><radialGradient id="radial-gradient-12" cx="84.4" cy="-101.54" r="1.93" xlink:href="#radial-gradient-3"/><radialGradient id="radial-gradient-13" cx="60.75" cy="-93.82" r="1.93" xlink:href="#radial-gradient-3"/><radialGradient id="radial-gradient-14" cx="37.48" cy="-99.16" r="1.93" xlink:href="#radial-gradient-3"/><radialGradient id="radial-gradient-15" cx="37.85" cy="-89.11" r="1.93" xlink:href="#radial-gradient-3"/><radialGradient id="radial-gradient-16" cx="51.97" cy="-88.02" r="1.93" xlink:href="#radial-gradient-3"/><radialGradient id="radial-gradient-17" cx="67.96" cy="-93.82" r="1.93" xlink:href="#radial-gradient-3"/><radialGradient id="radial-gradient-18" cx="76.67" cy="-92.98" r="1.93" xlink:href="#radial-gradient-3"/><radialGradient id="radial-gradient-19" cx="61.22" cy="-91.05" r="1.93" xlink:href="#radial-gradient-3"/><radialGradient id="radial-gradient-20" cx="84.79" cy="-89.96" r="1.93" xlink:href="#radial-gradient-3"/><radialGradient id="radial-gradient-21" cx="84.4" cy="-95.32" r="1.93" xlink:href="#radial-gradient-3"/><radialGradient id="radial-gradient-22" cx="96.49" cy="-94.91" r="1.93" xlink:href="#radial-gradient-3"/><radialGradient id="radial-gradient-23" cx="72.29" cy="-89.96" r="1.93" xlink:href="#radial-gradient-3"/><radialGradient id="radial-gradient-24" cx="48.05" cy="-92.53" r="1.93" xlink:href="#radial-gradient-3"/><radialGradient id="radial-gradient-25" cx="90.73" cy="-95.75" r="1.93" xlink:href="#radial-gradient-3"/><radialGradient id="radial-gradient-26" cx="102.42" cy="-93.82" r="1.93" xlink:href="#radial-gradient-3"/><radialGradient id="radial-gradient-27" cx="116.49" cy="-100.45" r="1.93" xlink:href="#radial-gradient-3"/><radialGradient id="radial-gradient-28" cx="122.53" cy="-99.61" r="1.93" xlink:href="#radial-gradient-3"/><radialGradient id="radial-gradient-29" cx="109.75" cy="-97.68" r="1.93" xlink:href="#radial-gradient-3"/><radialGradient id="radial-gradient-30" cx="132.29" cy="-100.02" r="1.93" xlink:href="#radial-gradient-3"/><radialGradient id="radial-gradient-31" cx="127.24" cy="-96.59" r="1.93" xlink:href="#radial-gradient-3"/><radialGradient id="radial-gradient-32" cx="141.28" cy="-100.02" r="1.93" xlink:href="#radial-gradient-3"/><radialGradient id="radial-gradient-33" cx="149.5" cy="-101.54" r="1.93" xlink:href="#radial-gradient-3"/><radialGradient id="radial-gradient-34" cx="137.42" cy="-101.54" r="1.93" xlink:href="#radial-gradient-3"/><radialGradient id="radial-gradient-35" cx="117.18" cy="-93.82" r="1.93" xlink:href="#radial-gradient-3"/><radialGradient id="radial-gradient-36" cx="100.93" cy="-99.16" r="1.93" xlink:href="#radial-gradient-3"/><radialGradient id="radial-gradient-37" cx="443.76" cy="-11.07" r="24" gradientTransform="matrix(1, 0, 0, -0.93, -0.65, 153.78)" xlink:href="#linear-gradient"/></defs><title>mountains</title><path class="cls-1" d="M1000,98.16S967.59,121.89,942.66,128s-47.48,13.25-38,23.19S920.11,167.38,907,173s-51.63,8.83-68.25,12.26-8.9,10-16,16.67-49.85,22.41-74.19,27.82c0,0,81.9-2.21,94.37-8.94s3.68-7.84,16.62-14.13,41.55-2.76,70.63-12.92,51.63-20.65,48.67-25.62-19.59-3.86-20.18-7.73S1000,148.83,1000,148.83V98.16Z" transform="translate(-0.65)"/><path class="cls-2" d="M213.6,201.17s96.27-14.57,178.88-41,153.6-57.52,138.17-28.49,48.19,8.28,87.13-5.19,123.8-25.95,143.87-24.84,1.07,24.84,0,31.14S853,118.14,871,101.69,858.74,95.51,855.29,83,916.66,55,939,44.61s15.67-21.75,22.32-29S1000.11,0,1000.11,0V51.89s-2,15.57-33.24,22.86S881.05,95.51,894.35,110s-14.48,41.51-60.18,50.35-101.49,7.73-111.58,0,12.23-28.49-3.32-31.69-88.08,55.54-108.73,50-25.16-19-46.29-18.44-112.77,21.86-114.9,30.36,15.08,3.75,19,14.68-189.68,34.89-189.68,34.89Z" transform="translate(-0.65)"/><path class="cls-3" d="M0.65,267.09V204.15s84.4-29.48,101-29.48c15.55,0,51,16.23,58.16,16.23s51.4-5.74,62.91-4.09c17.09,2.43,92.59,42.73,98.52,44.94s73.59-24.29,83.09-24.29,55.79,13.36,55.79,13.36,41.55-34.34,49.85-35.44,26.11,8.83,26.11,8.83S575.4,176,585.37,174.67,635.82,203,635.82,203s36.8-21,46.29-21,65.29,11,72.41,14.35,36.8,32,36.8,32,49.85-30.92,54.6-32,42.73,7.73,47.48,7.73,49.85-29.26,59.35-29.48S1000,181,1000,181v86.12H0.65Z" transform="translate(-0.65)"/><path class="cls-4" d="M162.91,190.79h0c-1.31.11-2.37,0.11-3.09,0.11-7.12,0-42.61-16.23-58.16-16.23,0,0,18.64,9.61,30,19.21C131.69,193.88,154.25,191.34,162.91,190.79Z" transform="translate(-0.65)"/><path class="cls-5" d="M264.64,213.32s21.72,12.37,38.22,24.29l20.54-5.85a6.74,6.74,0,0,1-2.14,0c-5.94-2.21-81.43-42.51-98.52-44.94,0,0,32,25.95,41.19,34C263.93,220.82,264.64,215.74,264.64,213.32Z" transform="translate(-0.65)"/><path class="cls-6" d="M426.31,217.07s12.82,5.85,24.33,12.7c0,0,5.82-6,9.5-8.94,0,0-46.29-13.36-55.79-13.36a194.11,194.11,0,0,1,22,13.36A4.78,4.78,0,0,0,426.31,217.07Z" transform="translate(-0.65)"/><path class="cls-7" d="M527.21,198.63l8.9-4.42s-17.81-9.94-26.11-8.83C510,185.38,517.71,189.25,527.21,198.63Z" transform="translate(-0.65)"/><path class="cls-8" d="M603.53,192a32.54,32.54,0,0,0,0-5s13.65,10.27,23.38,21.2l8.9-5.19s-40.36-29.81-50.45-28.38A90.07,90.07,0,0,1,603.53,192Z" transform="translate(-0.65)"/><path class="cls-9" d="M809.48,223.47v3.09c5.7-5,20.77-15.13,20.77-15.13v2.76c6.29-8.06,15.67-17.89,15.67-17.89-4.75,1.1-54.6,32-54.6,32l6.17,7.51Z" transform="translate(-0.65)"/><path class="cls-10" d="M928.41,190.9l1.78,3a245.68,245.68,0,0,1,21.72-19.1c-11,1.77-53.89,29.48-58.52,29.48l18.75,2.54Z" transform="translate(-0.65)"/><path class="cls-11" d="M0.65,257.81V225.57s97.81,5.41,104.1,7.29,28.61,7.07,28.61,7.07,27.78-1.44,35.37-1.44,44,5.19,44,5.19,14.24-.33,16.62-0.33S274.25,258,274.25,258H0.65v-0.22Z" transform="translate(-0.65)"/><path class="cls-12" d="M1000,229.1c-21.84,1.44-41.9,2.87-44.63,3.64-6.29,1.88-28.61,7.07-28.61,7.07s-27.78-1.44-35.37-1.44-44,5.19-44,5.19-14.24-.33-16.62-0.33-44.87,14.68-44.87,14.68H1000V229.1h0Z" transform="translate(-0.65)"/><rect class="cls-13" y="261.5" width="999.34" height="39.04"/><rect class="cls-14" y="261.5" width="999.34" height="39.04"/><rect class="cls-15" y="251.19" width="999.34" height="49.35"/><ellipse class="cls-16" cx="26.59" cy="242.8" rx="1.9" ry="1.77"/><ellipse class="cls-17" cx="42.73" cy="241.03" rx="1.9" ry="1.77"/><ellipse class="cls-18" cx="56.74" cy="247.21" rx="1.9" ry="1.77"/><ellipse class="cls-19" cx="65.4" cy="246.44" rx="1.9" ry="1.77"/><ellipse class="cls-20" cx="49.97" cy="244.67" rx="1.9" ry="1.77"/><ellipse class="cls-21" cx="78.58" cy="246.77" rx="1.9" ry="1.77"/><ellipse class="cls-22" cx="73.59" cy="243.57" rx="1.9" ry="1.77"/><ellipse class="cls-23" cx="87.6" cy="246.77" rx="1.9" ry="1.77"/><ellipse class="cls-24" cx="95.79" cy="248.21" rx="1.9" ry="1.77"/><ellipse class="cls-25" cx="83.8" cy="248.21" rx="1.9" ry="1.77"/><ellipse class="cls-26" cx="60.06" cy="241.03" rx="1.9" ry="1.77"/><ellipse class="cls-27" cx="36.8" cy="246" rx="1.9" ry="1.77"/><ellipse class="cls-28" cx="37.15" cy="236.72" rx="1.9" ry="1.77"/><ellipse class="cls-29" cx="51.28" cy="235.62" rx="1.9" ry="1.77"/><ellipse class="cls-30" cx="67.3" cy="241.03" rx="1.9" ry="1.77"/><ellipse class="cls-31" cx="75.97" cy="240.26" rx="1.9" ry="1.77"/><ellipse class="cls-32" cx="60.54" cy="238.49" rx="1.9" ry="1.77"/><ellipse class="cls-33" cx="84.16" cy="237.5" rx="1.9" ry="1.77"/><ellipse class="cls-34" cx="83.8" cy="242.46" rx="1.9" ry="1.77"/><ellipse class="cls-35" cx="95.79" cy="242.02" rx="1.9" ry="1.77"/><ellipse class="cls-36" cx="71.7" cy="237.5" rx="1.9" ry="1.77"/><ellipse class="cls-37" cx="47.36" cy="239.81" rx="1.9" ry="1.77"/><ellipse class="cls-38" cx="90.09" cy="242.8" rx="1.9" ry="1.77"/><ellipse class="cls-39" cx="101.73" cy="241.03" rx="1.9" ry="1.77"/><ellipse class="cls-40" cx="115.85" cy="247.21" rx="1.9" ry="1.77"/><ellipse class="cls-41" cx="121.91" cy="246.44" rx="1.9" ry="1.77"/><ellipse class="cls-42" cx="109.09" cy="244.67" rx="1.9" ry="1.77"/><ellipse class="cls-43" cx="131.64" cy="246.77" rx="1.9" ry="1.77"/><ellipse class="cls-44" cx="126.54" cy="243.57" rx="1.9" ry="1.77"/><ellipse class="cls-45" cx="140.66" cy="246.77" rx="1.9" ry="1.77"/><ellipse class="cls-46" cx="148.85" cy="248.21" rx="1.9" ry="1.77"/><ellipse class="cls-47" cx="136.74" cy="248.21" rx="1.9" ry="1.77"/><ellipse class="cls-48" cx="116.56" cy="241.03" rx="1.9" ry="1.77"/><ellipse class="cls-49" cx="100.3" cy="246" rx="1.9" ry="1.77"/><ellipse class="cls-50" cx="443.11" cy="164.07" rx="25.05" ry="23.3"/><ellipse class="cls-51" cx="443.11" cy="164.07" rx="9.73" ry="9.05"/></svg>