<svg id="Layer_1" data-name="Layer 1" xmlns="http://www.w3.org/2000/svg" xmlns:xlink="http://www.w3.org/1999/xlink" viewBox="0 0 842 438.05"><defs><style>.cls-1{fill:none;}.cls-2{fill:#fff;}.cls-3{fill:url(#linear-gradient);}.cls-4{fill:url(#linear-gradient-2);}.cls-5{fill:url(#linear-gradient-3);}.cls-6{fill:url(#linear-gradient-4);}.cls-7{fill:url(#linear-gradient-5);}.cls-8{fill:url(#linear-gradient-6);}.cls-9{fill:url(#linear-gradient-7);}.cls-10{fill:url(#linear-gradient-8);}.cls-11{fill:url(#linear-gradient-9);}.cls-12{fill:url(#linear-gradient-10);}.cls-13{fill:url(#linear-gradient-11);}.cls-14{fill:url(#linear-gradient-12);}.cls-15{fill:url(#linear-gradient-13);}.cls-16{fill:url(#radial-gradient);}.cls-17{opacity:0.75;isolation:isolate;fill:url(#radial-gradient-2);}.cls-18{fill:url(#radial-gradient-3);}.cls-19{fill:url(#radial-gradient-4);}.cls-20{fill:url(#radial-gradient-5);}.cls-21{fill:url(#radial-gradient-6);}.cls-22{fill:url(#radial-gradient-7);}.cls-23{fill:url(#radial-gradient-8);}.cls-24{fill:url(#radial-gradient-9);}.cls-25{fill:url(#radial-gradient-10);}.cls-26{fill:url(#radial-gradient-11);}.cls-27{fill:url(#radial-gradient-12);}.cls-28{fill:url(#radial-gradient-13);}.cls-29{fill:url(#radial-gradient-14);}.cls-30{fill:url(#radial-gradient-15);}.cls-31{fill:url(#radial-gradient-16);}.cls-32{fill:url(#radial-gradient-17);}.cls-33{fill:url(#radial-gradient-18);}.cls-34{fill:url(#radial-gradient-19);}.cls-35{fill:url(#radial-gradient-20);}.cls-36{fill:url(#radial-gradient-21);}.cls-37{fill:url(#radial-gradient-22);}.cls-38{fill:url(#radial-gradient-23);}.cls-39{fill:url(#radial-gradient-24);}.cls-40{fill:url(#radial-gradient-25);}.cls-41{fill:url(#radial-gradient-26);}.cls-42{fill:url(#radial-gradient-27);}.cls-43{fill:url(#radial-gradient-28);}.cls-44{fill:url(#radial-gradient-29);}.cls-45{fill:url(#radial-gradient-30);}.cls-46{fill:url(#radial-gradient-31);}.cls-47{fill:url(#radial-gradient-32);}.cls-48{fill:url(#radial-gradient-33);}.cls-49{fill:url(#radial-gradient-34);}.cls-50{fill:url(#radial-gradient-35);}.cls-51{fill:url(#radial-gradient-36);}.cls-52{fill:url(#radial-gradient-37);}</style><linearGradient id="linear-gradient" x1="757.88" y1="200.33" x2="733.4" y2="281.34" gradientTransform="matrix(1, 0, 0, -1, 0, 596.72)" gradientUnits="userSpaceOnUse"><stop offset="0" stop-color="#fff"/><stop offset="0.11" stop-color="#f6f8fa" stop-opacity="0.89"/><stop offset="0.25" stop-color="#e4eaec" stop-opacity="0.75"/><stop offset="0.42" stop-color="#c9dade" stop-opacity="0.58"/><stop offset="0.61" stop-color="#a2c4cb" stop-opacity="0.39"/><stop offset="0.8" stop-color="#72abb6" stop-opacity="0.2"/><stop offset="1" stop-color="#2894a0" stop-opacity="0"/></linearGradient><linearGradient id="linear-gradient-2" x1="550.19" y1="149.61" x2="513.19" y2="315" xlink:href="#linear-gradient"/><linearGradient id="linear-gradient-3" x1="420.95" y1="170.02" x2="420.95" y2="271.43" gradientTransform="matrix(1, 0, 0, -1, 0, 596.72)" gradientUnits="userSpaceOnUse"><stop offset="0" stop-color="#2894a0"/><stop offset="1" stop-color="#232e50"/></linearGradient><linearGradient id="linear-gradient-4" x1="118.11" y1="243.47" x2="107.38" y2="263.48" gradientTransform="matrix(1, 0, 0, -1, 0, 596.72)" gradientUnits="userSpaceOnUse"><stop offset="0" stop-color="#232e50" stop-opacity="0"/><stop offset="0.25" stop-color="#274a65" stop-opacity="0.25"/><stop offset="0.6" stop-color="#2d6f83" stop-opacity="0.6"/><stop offset="0.86" stop-color="#298997" stop-opacity="0.86"/><stop offset="1" stop-color="#2894a0"/></linearGradient><linearGradient id="linear-gradient-5" x1="242.12" y1="208.42" x2="219.04" y2="256.2" gradientTransform="matrix(1, 0, 0, -1, 0, 596.72)" gradientUnits="userSpaceOnUse"><stop offset="0" stop-color="#232e50" stop-opacity="0"/><stop offset="1" stop-color="#2894a0"/></linearGradient><linearGradient id="linear-gradient-6" x1="374.08" y1="219.36" x2="354.57" y2="240.01" xlink:href="#linear-gradient-5"/><linearGradient id="linear-gradient-7" x1="445.25" y1="243.7" x2="434.8" y2="258.44" xlink:href="#linear-gradient-5"/><linearGradient id="linear-gradient-8" x1="529.05" y1="231.27" x2="505.8" y2="262.59" xlink:href="#linear-gradient-5"/><linearGradient id="linear-gradient-9" x1="673.23" y1="210.16" x2="695.84" y2="241.26" xlink:href="#linear-gradient-5"/><linearGradient id="linear-gradient-10" x1="766.35" y1="236.89" x2="784.1" y2="261.3" xlink:href="#linear-gradient-5"/><linearGradient id="linear-gradient-11" x1="115.25" y1="177.38" x2="115.25" y2="202.33" xlink:href="#linear-gradient-3"/><linearGradient id="linear-gradient-12" x1="751.7" y1="179.18" x2="751.7" y2="201.37" xlink:href="#linear-gradient-3"/><linearGradient id="linear-gradient-13" x1="420.95" y1="213.74" x2="420.95" y2="167.37" gradientTransform="matrix(1, 0, 0, -1, 0, 595.72)" xlink:href="#linear-gradient-3"/><radialGradient id="radial-gradient" cx="236.45" cy="24.28" r="243.24" gradientTransform="matrix(1, 0, 0, -0.74, 0, 438.36)" gradientUnits="userSpaceOnUse"><stop offset="0" stop-color="#3db54a"/><stop offset="0.09" stop-color="#39ac4d" stop-opacity="0.91"/><stop offset="0.27" stop-color="#319659" stop-opacity="0.73"/><stop offset="0.5" stop-color="#2d7969" stop-opacity="0.5"/><stop offset="0.79" stop-color="#28556f" stop-opacity="0.21"/><stop offset="1" stop-color="#283471" stop-opacity="0"/></radialGradient><radialGradient id="radial-gradient-2" cx="374.45" cy="22.77" r="103.77" gradientTransform="matrix(1, 0, 0, -0.93, 0, 438.44)" xlink:href="#linear-gradient"/><radialGradient id="radial-gradient-3" cx="22.44" cy="52.68" r="1.63" gradientTransform="matrix(1, 0, 0, -0.93, 0, 438.44)" gradientUnits="userSpaceOnUse"><stop offset="0" stop-color="#fff"/><stop offset="1" stop-color="#232e50" stop-opacity="0"/></radialGradient><radialGradient id="radial-gradient-4" cx="35.95" cy="54.31" r="1.63" xlink:href="#radial-gradient-3"/><radialGradient id="radial-gradient-5" cx="47.8" cy="48.72" r="1.62" xlink:href="#radial-gradient-3"/><radialGradient id="radial-gradient-6" cx="55.14" cy="49.43" r="1.63" xlink:href="#radial-gradient-3"/><radialGradient id="radial-gradient-7" cx="42.13" cy="51.05" r="1.63" xlink:href="#radial-gradient-3"/><radialGradient id="radial-gradient-8" cx="66.24" cy="49.08" r="1.63" xlink:href="#radial-gradient-3"/><radialGradient id="radial-gradient-9" cx="61.98" cy="51.97" r="1.63" xlink:href="#radial-gradient-3"/><radialGradient id="radial-gradient-10" cx="73.81" cy="49.08" r="1.63" xlink:href="#radial-gradient-3"/><radialGradient id="radial-gradient-11" cx="80.74" cy="47.8" r="1.63" xlink:href="#radial-gradient-3"/><radialGradient id="radial-gradient-12" cx="70.56" cy="47.8" r="1.63" xlink:href="#radial-gradient-3"/><radialGradient id="radial-gradient-13" cx="50.64" cy="54.31" r="1.63" xlink:href="#radial-gradient-3"/><radialGradient id="radial-gradient-14" cx="31.03" cy="49.8" r="1.63" xlink:href="#radial-gradient-3"/><radialGradient id="radial-gradient-15" cx="31.34" cy="58.27" r="1.63" xlink:href="#radial-gradient-3"/><radialGradient id="radial-gradient-16" cx="43.23" cy="59.19" r="1.63" xlink:href="#radial-gradient-3"/><radialGradient id="radial-gradient-17" cx="56.71" cy="54.31" r="1.63" xlink:href="#radial-gradient-3"/><radialGradient id="radial-gradient-18" cx="64.05" cy="55.01" r="1.63" xlink:href="#radial-gradient-3"/><radialGradient id="radial-gradient-19" cx="51.03" cy="56.64" r="1.63" xlink:href="#radial-gradient-3"/><radialGradient id="radial-gradient-20" cx="70.89" cy="57.56" r="1.63" xlink:href="#radial-gradient-3"/><radialGradient id="radial-gradient-21" cx="70.56" cy="53.04" r="1.63" xlink:href="#radial-gradient-3"/><radialGradient id="radial-gradient-22" cx="80.74" cy="53.39" r="1.63" xlink:href="#radial-gradient-3"/><radialGradient id="radial-gradient-23" cx="60.35" cy="57.56" r="1.63" xlink:href="#radial-gradient-3"/><radialGradient id="radial-gradient-24" cx="39.94" cy="55.39" r="1.63" xlink:href="#radial-gradient-3"/><radialGradient id="radial-gradient-25" cx="75.89" cy="52.68" r="1.63" xlink:href="#radial-gradient-3"/><radialGradient id="radial-gradient-26" cx="85.74" cy="54.31" r="1.63" xlink:href="#radial-gradient-3"/><radialGradient id="radial-gradient-27" cx="97.59" cy="48.72" r="1.63" xlink:href="#radial-gradient-3"/><radialGradient id="radial-gradient-28" cx="102.68" cy="49.43" r="1.63" xlink:href="#radial-gradient-3"/><radialGradient id="radial-gradient-29" cx="91.91" cy="51.05" r="1.63" xlink:href="#radial-gradient-3"/><radialGradient id="radial-gradient-30" cx="110.9" cy="49.08" r="1.63" xlink:href="#radial-gradient-3"/><radialGradient id="radial-gradient-31" cx="106.65" cy="51.97" r="1.63" xlink:href="#radial-gradient-3"/><radialGradient id="radial-gradient-32" cx="118.48" cy="49.08" r="1.63" xlink:href="#radial-gradient-3"/><radialGradient id="radial-gradient-33" cx="125.4" cy="47.8" r="1.63" xlink:href="#radial-gradient-3"/><radialGradient id="radial-gradient-34" cx="115.23" cy="47.8" r="1.63" xlink:href="#radial-gradient-3"/><radialGradient id="radial-gradient-35" cx="98.17" cy="54.31" r="1.63" xlink:href="#radial-gradient-3"/><radialGradient id="radial-gradient-36" cx="84.48" cy="49.8" r="1.63" xlink:href="#radial-gradient-3"/><radialGradient id="radial-gradient-37" cx="373.3" cy="124.02" r="20.22" gradientTransform="matrix(1, 0, 0, -0.93, 0, 438.44)" xlink:href="#linear-gradient"/></defs><title>nightscape</title><rect class="cls-1" width="841.9" height="438.05"/><path class="cls-2" d="M61.9,67.37a2.14,2.14,0,1,0,0-4.24,2.14,2.14,0,1,0,0,4.24h0Z" transform="translate(0 -1)"/><path class="cls-2" d="M114.9,198.86a2.14,2.14,0,1,0,0-4.24,2.14,2.14,0,1,0,0,4.24h0Z" transform="translate(0 -1)"/><path class="cls-2" d="M310.9,210.74a2.14,2.14,0,1,0,0-4.24,2.14,2.14,0,1,0,0,4.24h0Z" transform="translate(0 -1)"/><path class="cls-2" d="M393.9,108.09a2.14,2.14,0,1,0,0-4.24,2.14,2.14,0,1,0,0,4.24h0Z" transform="translate(0 -1)"/><path class="cls-2" d="M555.9,133.54a2.14,2.14,0,1,0,0-4.24,2.14,2.14,0,1,0,0,4.24h0Z" transform="translate(0 -1)"/><path class="cls-2" d="M686.9,44.47a2.14,2.14,0,1,0,0-4.24,2.14,2.14,0,1,0,0,4.24h0Z" transform="translate(0 -1)"/><path class="cls-2" d="M786.9,98.76a2.14,2.14,0,1,0,0-4.24,2.14,2.14,0,1,0,0,4.24h0Z" transform="translate(0 -1)"/><path class="cls-2" d="M448.9,239.58a2.14,2.14,0,1,0,0-4.24,2.14,2.14,0,1,0,0,4.24h0Z" transform="translate(0 -1)"/><path class="cls-2" d="M590.9,26.65a2.14,2.14,0,1,0,0-4.24,2.14,2.14,0,1,0,0,4.24h0Z" transform="translate(0 -1)"/><path class="cls-2" d="M326.9,12.23a2.14,2.14,0,1,0,0-4.24,2.14,2.14,0,1,0,0,4.24h0Z" transform="translate(0 -1)"/><path class="cls-2" d="M270.9,33.44a2.14,2.14,0,1,0,0-4.24,2.14,2.14,0,1,0,0,4.24h0Z" transform="translate(0 -1)"/><path class="cls-2" d="M300.9,46.16a2.14,2.14,0,1,0,0-4.24,2.14,2.14,0,1,0,0,4.24h0Z" transform="translate(0 -1)"/><path class="cls-2" d="M24.9,167.47a2.14,2.14,0,1,0,0-4.24,2.14,2.14,0,1,0,0,4.24h0Z" transform="translate(0 -1)"/><path class="cls-2" d="M251.9,169.17a2.14,2.14,0,1,0,0-4.24,2.14,2.14,0,1,0,0,4.24h0Z" transform="translate(0 -1)"/><path class="cls-2" d="M492.9,224.73c5.2,0,5.2-6.79,0-6.79s-5.1,6.79,0,6.79h0Z" transform="translate(0 -1)"/><path class="cls-2" d="M779.9,57.62c5.2,0,5.2-6.79,0-6.79s-5.1,6.79,0,6.79h0Z" transform="translate(0 -1)"/><path class="cls-2" d="M32.9,33c5.2,0,5.2-6.79,0-6.79S27.8,33,32.9,33h0Z" transform="translate(0 -1)"/><path class="cls-2" d="M116.9,31.74a1.28,1.28,0,1,0,0-2.54,1.28,1.28,0,1,0,0,2.54h0Z" transform="translate(0 -1)"/><path class="cls-2" d="M36.9,218.37a1.28,1.28,0,1,0,0-2.54,1.28,1.28,0,1,0,0,2.54h0Z" transform="translate(0 -1)"/><path class="cls-2" d="M617.9,44.47a1.28,1.28,0,1,0,0-2.54,1.28,1.28,0,1,0,0,2.54h0Z" transform="translate(0 -1)"/><path class="cls-2" d="M771.9,22.41a1.28,1.28,0,1,0,0-2.54,1.28,1.28,0,1,0,0,2.54h0Z" transform="translate(0 -1)"/><path class="cls-2" d="M728.9,91.13a1.28,1.28,0,1,0,0-2.54,1.28,1.28,0,1,0,0,2.54h0Z" transform="translate(0 -1)"/><path class="cls-2" d="M537.9,90.28a1.28,1.28,0,1,0,0-2.54,1.28,1.28,0,1,0,0,2.54h0Z" transform="translate(0 -1)"/><path class="cls-2" d="M478.9,59.74a1.28,1.28,0,1,0,0-2.54,1.28,1.28,0,1,0,0,2.54h0Z" transform="translate(0 -1)"/><path class="cls-2" d="M420.9,103a1.28,1.28,0,1,0,0-2.54,1.28,1.28,0,1,0,0,2.54h0Z" transform="translate(0 -1)"/><path class="cls-2" d="M377.9,142a1.28,1.28,0,1,0,0-2.54,1.28,1.28,0,1,0,0,2.54h0Z" transform="translate(0 -1)"/><path class="cls-2" d="M274.9,241.28a1.28,1.28,0,1,0,0-2.54,1.28,1.28,0,1,0,0,2.54h0Z" transform="translate(0 -1)"/><path class="cls-2" d="M279.9,197.16a1.28,1.28,0,1,0,0-2.54,1.28,1.28,0,1,0,0,2.54h0Z" transform="translate(0 -1)"/><path class="cls-2" d="M192.9,187.83a1.28,1.28,0,1,0,0-2.54,1.28,1.28,0,1,0,0,2.54h0Z" transform="translate(0 -1)"/><path class="cls-2" d="M123.9,159.84a1.28,1.28,0,1,0,0-2.54,1.28,1.28,0,1,0,0,2.54h0Z" transform="translate(0 -1)"/><path class="cls-2" d="M129.9,67.37a1.28,1.28,0,1,0,0-2.54,1.28,1.28,0,1,0,0,2.54h0Z" transform="translate(0 -1)"/><path class="cls-2" d="M6.9,103a1.28,1.28,0,1,0,0-2.54,1.28,1.28,0,1,0,0,2.54h0Z" transform="translate(0 -1)"/><path class="cls-2" d="M26.9,53.8a1.28,1.28,0,1,0,0-2.54,1.28,1.28,0,1,0,0,2.54h0Z" transform="translate(0 -1)"/><path class="cls-2" d="M19.9,15.63a1.28,1.28,0,1,0,0-2.54,1.28,1.28,0,1,0,0,2.54h0Z" transform="translate(0 -1)"/><path class="cls-2" d="M301.9,15.63a1.28,1.28,0,1,0,0-2.54,1.28,1.28,0,1,0,0,2.54h0Z" transform="translate(0 -1)"/><path class="cls-2" d="M219.9,138.63a1.28,1.28,0,1,0,0-2.54,1.28,1.28,0,1,0,0,2.54h0Z" transform="translate(0 -1)"/><path class="cls-2" d="M309.9,97.06a1.28,1.28,0,1,0,0-2.54,1.28,1.28,0,1,0,0,2.54h0Z" transform="translate(0 -1)"/><path class="cls-2" d="M460.9,100.46a1.28,1.28,0,1,0,0-2.54,1.28,1.28,0,1,0,0,2.54h0Z" transform="translate(0 -1)"/><path class="cls-2" d="M417.9,30a1.28,1.28,0,1,0,0-2.54,1.28,1.28,0,1,0,0,2.54h0Z" transform="translate(0 -1)"/><path class="cls-2" d="M525.9,36a1.28,1.28,0,1,0,0-2.54,1.28,1.28,0,1,0,0,2.54h0Z" transform="translate(0 -1)"/><path class="cls-2" d="M521.9,226a1.28,1.28,0,1,0,0-2.54,1.28,1.28,0,1,0,0,2.54h0Z" transform="translate(0 -1)"/><path class="cls-2" d="M12.9,181a1.28,1.28,0,1,0,0-2.54,1.28,1.28,0,1,0,0,2.54h0Z" transform="translate(0 -1)"/><path class="cls-2" d="M71.9,170a1.28,1.28,0,1,0,0-2.54,1.28,1.28,0,1,0,0,2.54h0Z" transform="translate(0 -1)"/><path class="cls-2" d="M218.9,57.19a1.28,1.28,0,1,0,0-2.54,1.28,1.28,0,1,0,0,2.54h0Z" transform="translate(0 -1)"/><path class="cls-2" d="M202.9,13.93a1.28,1.28,0,1,0,0-2.54,1.28,1.28,0,1,0,0,2.54h0Z" transform="translate(0 -1)"/><path class="cls-2" d="M499.9,24.11a1.28,1.28,0,1,0,0-2.54,1.28,1.28,0,1,0,0,2.54h0Z" transform="translate(0 -1)"/><path class="cls-2" d="M492.9,51.25a1.28,1.28,0,1,0,0-2.54,1.28,1.28,0,1,0,0,2.54h0Z" transform="translate(0 -1)"/><path class="cls-2" d="M673.9,102.15a1.28,1.28,0,1,0,0-2.54,1.28,1.28,0,1,0,0,2.54h0Z" transform="translate(0 -1)"/><path class="cls-2" d="M616.9,180.2a1.28,1.28,0,1,0,0-2.54,1.28,1.28,0,1,0,0,2.54h0Z" transform="translate(0 -1)"/><path class="cls-2" d="M756.9,157.29a1.28,1.28,0,1,0,0-2.54,1.28,1.28,0,1,0,0,2.54h0Z" transform="translate(0 -1)"/><path class="cls-2" d="M487.9,148a1.28,1.28,0,1,0,0-2.54,1.28,1.28,0,1,0,0,2.54h0Z" transform="translate(0 -1)"/><path class="cls-2" d="M739.9,13.08a1.28,1.28,0,1,0,0-2.54,1.28,1.28,0,1,0,0,2.54h0Z" transform="translate(0 -1)"/><path class="cls-2" d="M834.9,16.47a1.28,1.28,0,1,0,0-2.54,1.28,1.28,0,1,0,0,2.54h0Z" transform="translate(0 -1)"/><path class="cls-2" d="M825.9,36.83a1.28,1.28,0,1,0,0-2.54,1.28,1.28,0,1,0,0,2.54h0Z" transform="translate(0 -1)"/><path class="cls-2" d="M662.9,159a2.14,2.14,0,1,0,0-4.24,2.14,2.14,0,1,0,0,4.24h0Z" transform="translate(0 -1)"/><path class="cls-2" d="M381.9,158.14a2.14,2.14,0,1,0,0-4.24,2.14,2.14,0,1,0,0,4.24h0Z" transform="translate(0 -1)"/><path class="cls-2" d="M579.9,226.86a2.14,2.14,0,1,0,0-4.24,2.14,2.14,0,1,0,0,4.24h0Z" transform="translate(0 -1)"/><path class="cls-2" d="M565.9,187.83a1.28,1.28,0,1,0,0-2.54,1.28,1.28,0,1,0,0,2.54h0Z" transform="translate(0 -1)"/><path class="cls-2" d="M694.9,222.61a1.28,1.28,0,1,0,0-2.54,1.28,1.28,0,1,0,0,2.54h0Z" transform="translate(0 -1)"/><path class="cls-2" d="M657.9,215a1.28,1.28,0,1,0,0-2.54,1.28,1.28,0,1,0,0,2.54h0Z" transform="translate(0 -1)"/><path class="cls-2" d="M360.9,210.74a1.28,1.28,0,1,0,0-2.54,1.28,1.28,0,1,0,0,2.54h0Z" transform="translate(0 -1)"/><path class="cls-2" d="M325.9,148a1.28,1.28,0,1,0,0-2.54,1.28,1.28,0,1,0,0,2.54h0Z" transform="translate(0 -1)"/><path class="cls-2" d="M361.9,49.56a1.28,1.28,0,1,0,0-2.54,1.28,1.28,0,1,0,0,2.54h0Z" transform="translate(0 -1)"/><path class="cls-2" d="M437.9,150.51a1.28,1.28,0,1,0,0-2.54,1.28,1.28,0,1,0,0,2.54h0Z" transform="translate(0 -1)"/><path class="cls-2" d="M441.9,181.89a1.28,1.28,0,1,0,0-2.54,1.28,1.28,0,1,0,0,2.54h0Z" transform="translate(0 -1)"/><path class="cls-2" d="M175.9,220.07a1.28,1.28,0,1,0,0-2.54,1.28,1.28,0,1,0,0,2.54h0Z" transform="translate(0 -1)"/><path class="cls-2" d="M94.9,224.31a1.28,1.28,0,1,0,0-2.54,1.28,1.28,0,1,0,0,2.54h0Z" transform="translate(0 -1)"/><path class="cls-2" d="M632.9,100.46a1.28,1.28,0,1,0,0-2.54,1.28,1.28,0,1,0,0,2.54h0Z" transform="translate(0 -1)"/><path class="cls-2" d="M614.9,125.91a1.28,1.28,0,1,0,0-2.54,1.28,1.28,0,1,0,0,2.54h0Z" transform="translate(0 -1)"/><path class="cls-2" d="M549.9,142.87a1.28,1.28,0,1,0,0-2.54,1.28,1.28,0,1,0,0,2.54h0Z" transform="translate(0 -1)"/><path class="cls-2" d="M815.9,175.11a1.28,1.28,0,1,0,0-2.54,1.28,1.28,0,1,0,0,2.54h0Z" transform="translate(0 -1)"/><path class="cls-3" d="M841.9,268.55s-27.3,20-48.3,25.11-40,11.16-32,19.53,13,13.67,2,18.42-43.5,7.44-57.5,10.32-7.5,8.46-13.5,14-42,18.88-62.5,23.44c0,0,69-1.86,79.5-7.53s3.1-6.6,14-11.91,35-2.33,59.5-10.88,43.5-17.39,41-21.58-16.5-3.26-17-6.51,34.8-9.77,34.8-9.77V268.55Z" transform="translate(0 -1)"/><path class="cls-4" d="M179.4,355.34s81.1-12.28,150.7-34.51,129.4-48.46,116.4-24,40.6,7,73.4-4.37,104.3-21.86,121.2-20.93,0.9,20.93,0,26.23,77-12.37,92.1-26.23-10.3-5.21-13.2-15.72,51.7-23.63,70.5-32.37,13.2-18.32,18.8-24.46S842,185.86,842,185.86v43.72s-1.7,13.12-28,19.25-72.3,17.49-61.1,29.67-12.2,35-50.7,42.42-85.5,6.51-94,0,10.3-24-2.8-26.7S531.2,341,513.8,336.36s-21.2-16-39-15.53-95,18.42-96.8,25.58,12.7,3.16,16,12.37-159.8,29.39-159.8,29.39Z" transform="translate(0 -1)"/><path class="cls-5" d="M0,410.87v-53S71.1,333,85.1,333c13.1,0,43,13.67,49,13.67s43.3-4.84,53-3.44c14.4,2,78,36,83,37.86s62-20.46,70-20.46,47,11.25,47,11.25,35-28.93,42-29.86,22,7.44,22,7.44,33.1-15.35,41.5-16.46,42.5,23.91,42.5,23.91,31-17.67,39-17.67,55,9.3,61,12.09,31,27,31,27,42-26,46-27,36,6.51,40,6.51,42-24.65,50-24.84,39.8,5.3,39.8,5.3v72.55H0Z" transform="translate(0 -1)"/><path class="cls-6" d="M136.7,346.59h0c-1.1.09-2,.09-2.6,0.09-6,0-35.9-13.67-49-13.67,0,0,15.7,8.09,25.3,16.18C110.4,349.2,129.4,347.06,136.7,346.59Z" transform="translate(0 -1)"/><path class="cls-7" d="M222.4,365.57S240.7,376,254.6,386l17.3-4.93a5.68,5.68,0,0,1-1.8,0c-5-1.86-68.6-35.81-83-37.86,0,0,27,21.86,34.7,28.65C221.8,371.89,222.4,367.62,222.4,365.57Z" transform="translate(0 -1)"/><path class="cls-8" d="M358.6,368.73s10.8,4.93,20.5,10.7c0,0,4.9-5,8-7.53,0,0-39-11.26-47-11.26a163.53,163.53,0,0,1,18.5,11.26A4,4,0,0,0,358.6,368.73Z" transform="translate(0 -1)"/><path class="cls-9" d="M443.6,353.2l7.5-3.72s-15-8.37-22-7.44C429.1,342,435.6,345.29,443.6,353.2Z" transform="translate(0 -1)"/><path class="cls-10" d="M507.9,347.62a27.42,27.42,0,0,0,0-4.19s11.5,8.65,19.7,17.86l7.5-4.37s-34-25.11-42.5-23.91A75.88,75.88,0,0,1,507.9,347.62Z" transform="translate(0 -1)"/><path class="cls-11" d="M681.4,374.13v2.6c4.8-4.19,17.5-12.74,17.5-12.74v2.33c5.3-6.79,13.2-15.07,13.2-15.07-4,.93-46,27-46,27l5.2,6.33Z" transform="translate(0 -1)"/><path class="cls-12" d="M781.6,346.69l1.5,2.51a207,207,0,0,1,18.3-16.09c-9.3,1.49-45.4,24.84-49.3,24.84l15.8,2.14Z" transform="translate(0 -1)"/><path class="cls-13" d="M0,403.06V375.89s82.4,4.56,87.7,6.14,24.1,6,24.1,6,23.4-1.21,29.8-1.21,37.1,4.37,37.1,4.37,12-.28,14-0.28,37.8,12.37,37.8,12.37H0v-0.19Z" transform="translate(0 -1)"/><path class="cls-14" d="M841.9,378.87c-18.4,1.21-35.3,2.42-37.6,3.07-5.3,1.58-24.1,6-24.1,6s-23.4-1.21-29.8-1.21-37.1,4.37-37.1,4.37-12-.28-14-0.28-37.8,12.37-37.8,12.37H841.9V378.87h0Z" transform="translate(0 -1)"/><rect class="cls-15" y="405.16" width="841.9" height="32.89"/><rect class="cls-16" y="405.16" width="841.9" height="32.89"/><rect class="cls-17" y="396.47" width="841.9" height="41.58"/><ellipse class="cls-18" cx="22.4" cy="389.4" rx="1.6" ry="1.49"/><ellipse class="cls-19" cx="36" cy="387.92" rx="1.6" ry="1.49"/><ellipse class="cls-20" cx="47.8" cy="393.13" rx="1.6" ry="1.49"/><ellipse class="cls-21" cx="55.1" cy="392.47" rx="1.6" ry="1.49"/><ellipse class="cls-22" cx="42.1" cy="390.99" rx="1.6" ry="1.49"/><ellipse class="cls-23" cx="66.2" cy="392.75" rx="1.6" ry="1.49"/><ellipse class="cls-24" cx="62" cy="390.06" rx="1.6" ry="1.49"/><ellipse class="cls-25" cx="73.8" cy="392.75" rx="1.6" ry="1.49"/><ellipse class="cls-26" cx="80.7" cy="393.96" rx="1.6" ry="1.49"/><ellipse class="cls-27" cx="70.6" cy="393.96" rx="1.6" ry="1.49"/><ellipse class="cls-28" cx="50.6" cy="387.92" rx="1.6" ry="1.49"/><ellipse class="cls-29" cx="31" cy="392.1" rx="1.6" ry="1.49"/><ellipse class="cls-30" cx="31.3" cy="384.29" rx="1.6" ry="1.49"/><ellipse class="cls-31" cx="43.2" cy="383.36" rx="1.6" ry="1.49"/><ellipse class="cls-32" cx="56.7" cy="387.92" rx="1.6" ry="1.49"/><ellipse class="cls-33" cx="64" cy="387.27" rx="1.6" ry="1.49"/><ellipse class="cls-34" cx="51" cy="385.78" rx="1.6" ry="1.49"/><ellipse class="cls-35" cx="70.9" cy="384.94" rx="1.6" ry="1.49"/><ellipse class="cls-36" cx="70.6" cy="389.13" rx="1.6" ry="1.49"/><ellipse class="cls-37" cx="80.7" cy="388.75" rx="1.6" ry="1.49"/><ellipse class="cls-38" cx="60.4" cy="384.94" rx="1.6" ry="1.49"/><ellipse class="cls-39" cx="39.9" cy="386.89" rx="1.6" ry="1.49"/><ellipse class="cls-40" cx="75.9" cy="389.4" rx="1.6" ry="1.49"/><ellipse class="cls-41" cx="85.7" cy="387.92" rx="1.6" ry="1.49"/><ellipse class="cls-42" cx="97.6" cy="393.13" rx="1.6" ry="1.49"/><ellipse class="cls-43" cx="102.7" cy="392.47" rx="1.6" ry="1.49"/><ellipse class="cls-44" cx="91.9" cy="390.99" rx="1.6" ry="1.49"/><ellipse class="cls-45" cx="110.9" cy="392.75" rx="1.6" ry="1.49"/><ellipse class="cls-46" cx="106.6" cy="390.06" rx="1.6" ry="1.49"/><ellipse class="cls-47" cx="118.5" cy="392.75" rx="1.6" ry="1.49"/><ellipse class="cls-48" cx="125.4" cy="393.96" rx="1.6" ry="1.49"/><ellipse class="cls-49" cx="115.2" cy="393.96" rx="1.6" ry="1.49"/><ellipse class="cls-50" cx="98.2" cy="387.92" rx="1.6" ry="1.49"/><ellipse class="cls-51" cx="84.5" cy="392.1" rx="1.6" ry="1.49"/><ellipse class="cls-52" cx="373.3" cy="323.08" rx="21.1" ry="19.63"/><ellipse class="cls-2" cx="373.3" cy="323.08" rx="8.2" ry="7.63"/></svg>