<svg id="Layer_1" data-name="Layer 1" xmlns="http://www.w3.org/2000/svg" viewBox="0 0 1001.57 281.22" preserveAspectRatio="none"><defs><style>.cls-1{fill:#fff;}</style></defs><title>stars</title><path class="cls-1" d="M68,80.57c3.86,0,3.86-5.11,0-5.11s-3.86,5.11,0,5.11h0Z" transform="translate(0 -8.99)"/><path class="cls-1" d="M131.91,239.08c3.86,0,3.86-5.11,0-5.11s-3.86,5.11,0,5.11h0Z" transform="translate(0 -8.99)"/><path class="cls-1" d="M368.18,253.4c3.86,0,3.86-5.11,0-5.11s-3.86,5.11,0,5.11h0Z" transform="translate(0 -8.99)"/><path class="cls-1" d="M468.24,129.66c3.86,0,3.86-5.11,0-5.11s-3.86,5.11,0,5.11h0Z" transform="translate(0 -8.99)"/><path class="cls-1" d="M663.53,160.34c3.86,0,3.86-5.11,0-5.11s-3.86,5.11,0,5.11h0Z" transform="translate(0 -8.99)"/><path class="cls-1" d="M821.44,53c3.86,0,3.86-5.11,0-5.11s-3.86,5.11,0,5.11h0Z" transform="translate(0 -8.99)"/><path class="cls-1" d="M942,118.41c3.86,0,3.86-5.11,0-5.11s-3.86,5.11,0,5.11h0Z" transform="translate(0 -8.99)"/><path class="cls-1" d="M534.54,288.17c3.86,0,3.86-5.11,0-5.11s-3.86,5.11,0,5.11h0Z" transform="translate(0 -8.99)"/><path class="cls-1" d="M705.72,31.49c3.86,0,3.86-5.11,0-5.11s-3.86,5.11,0,5.11h0Z" transform="translate(0 -8.99)"/><path class="cls-1" d="M387.47,14.1c3.86,0,3.86-5.11,0-5.11s-3.86,5.11,0,5.11h0Z" transform="translate(0 -8.99)"/><path class="cls-1" d="M320,39.67c3.86,0,3.86-5.11,0-5.11s-3.86,5.11,0,5.11h0Z" transform="translate(0 -8.99)"/><path class="cls-1" d="M356.13,55c3.86,0,3.86-5.11,0-5.11s-3.86,5.11,0,5.11h0Z" transform="translate(0 -8.99)"/><path class="cls-1" d="M23.42,201.24c3.86,0,3.86-5.11,0-5.11s-3.86,5.11,0,5.11h0Z" transform="translate(0 -8.99)"/><path class="cls-1" d="M297.06,203.29c3.86,0,3.86-5.11,0-5.11s-3.86,5.11,0,5.11h0Z" transform="translate(0 -8.99)"/><path class="cls-1" d="M587.58,270.27c6.27,0,6.27-8.18,0-8.18s-6.15,8.18,0,8.18h0Z" transform="translate(0 -8.99)"/><path class="cls-1" d="M933.55,68.81c6.27,0,6.27-8.18,0-8.18s-6.15,8.18,0,8.18h0Z" transform="translate(0 -8.99)"/><path class="cls-1" d="M33.06,39.16c6.27,0,6.27-8.18,0-8.18s-6.15,8.18,0,8.18h0Z" transform="translate(0 -8.99)"/><path class="cls-1" d="M134.32,37.62a1.54,1.54,0,1,0,0-3.07,1.54,1.54,0,1,0,0,3.07h0Z" transform="translate(0 -8.99)"/><path class="cls-1" d="M37.88,262.6a1.54,1.54,0,1,0,0-3.07,1.54,1.54,0,1,0,0,3.07h0Z" transform="translate(0 -8.99)"/><path class="cls-1" d="M738.27,53a1.54,1.54,0,1,0,0-3.07,1.54,1.54,0,1,0,0,3.07h0Z" transform="translate(0 -8.99)"/><path class="cls-1" d="M923.91,26.38a1.54,1.54,0,1,0,0-3.07,1.54,1.54,0,1,0,0,3.07h0Z" transform="translate(0 -8.99)"/><path class="cls-1" d="M872.07,109.21a1.54,1.54,0,1,0,0-3.07,1.54,1.54,0,1,0,0,3.07h0Z" transform="translate(0 -8.99)"/><path class="cls-1" d="M641.83,108.19a1.54,1.54,0,1,0,0-3.07,1.54,1.54,0,1,0,0,3.07h0Z" transform="translate(0 -8.99)"/><path class="cls-1" d="M570.7,71.37a1.54,1.54,0,1,0,0-3.07,1.54,1.54,0,1,0,0,3.07h0Z" transform="translate(0 -8.99)"/><path class="cls-1" d="M500.79,123.52a1.54,1.54,0,1,0,0-3.07,1.54,1.54,0,1,0,0,3.07h0Z" transform="translate(0 -8.99)"/><path class="cls-1" d="M449,170.57a1.54,1.54,0,1,0,0-3.07,1.54,1.54,0,1,0,0,3.07h0Z" transform="translate(0 -8.99)"/><path class="cls-1" d="M324.79,290.21a1.54,1.54,0,1,0,0-3.07,1.54,1.54,0,1,0,0,3.07h0Z" transform="translate(0 -8.99)"/><path class="cls-1" d="M330.81,237a1.54,1.54,0,1,0,0-3.07,1.54,1.54,0,1,0,0,3.07h0Z" transform="translate(0 -8.99)"/><path class="cls-1" d="M225.94,225.79a1.54,1.54,0,1,0,0-3.07,1.54,1.54,0,1,0,0,3.07h0Z" transform="translate(0 -8.99)"/><path class="cls-1" d="M142.76,192a1.54,1.54,0,1,0,0-3.07,1.54,1.54,0,1,0,0,3.07h0Z" transform="translate(0 -8.99)"/><path class="cls-1" d="M150,80.57a1.54,1.54,0,1,0,0-3.07,1.54,1.54,0,1,0,0,3.07h0Z" transform="translate(0 -8.99)"/><path class="cls-1" d="M1.72,123.52a1.54,1.54,0,1,0,0-3.07,1.54,1.54,0,1,0,0,3.07h0Z" transform="translate(0 -8.99)"/><path class="cls-1" d="M25.83,64.21a1.54,1.54,0,1,0,0-3.07,1.54,1.54,0,1,0,0,3.07h0Z" transform="translate(0 -8.99)"/><path class="cls-1" d="M17.39,18.19a1.54,1.54,0,1,0,0-3.07,1.54,1.54,0,1,0,0,3.07h0Z" transform="translate(0 -8.99)"/><path class="cls-1" d="M357.33,18.19a1.54,1.54,0,1,0,0-3.07,1.54,1.54,0,1,0,0,3.07h0Z" transform="translate(0 -8.99)"/><path class="cls-1" d="M258.48,166.47a1.54,1.54,0,1,0,0-3.07,1.54,1.54,0,1,0,0,3.07h0Z" transform="translate(0 -8.99)"/><path class="cls-1" d="M367,116.37a1.54,1.54,0,1,0,0-3.07,1.54,1.54,0,1,0,0,3.07h0Z" transform="translate(0 -8.99)"/><path class="cls-1" d="M549,120.46a1.54,1.54,0,1,0,0-3.07,1.54,1.54,0,1,0,0,3.07h0Z" transform="translate(0 -8.99)"/><path class="cls-1" d="M497.17,35.58a1.54,1.54,0,1,0,0-3.07,1.54,1.54,0,1,0,0,3.07h0Z" transform="translate(0 -8.99)"/><path class="cls-1" d="M627.36,42.74a1.54,1.54,0,1,0,0-3.07,1.54,1.54,0,1,0,0,3.07h0Z" transform="translate(0 -8.99)"/><path class="cls-1" d="M622.54,271.8a1.54,1.54,0,1,0,0-3.07,1.54,1.54,0,1,0,0,3.07h0Z" transform="translate(0 -8.99)"/><path class="cls-1" d="M9,217.61a1.54,1.54,0,1,0,0-3.07,1.54,1.54,0,1,0,0,3.07H9Z" transform="translate(0 -8.99)"/><path class="cls-1" d="M80.07,204.31a1.54,1.54,0,1,0,0-3.07,1.54,1.54,0,1,0,0,3.07h0Z" transform="translate(0 -8.99)"/><path class="cls-1" d="M257.28,68.3a1.54,1.54,0,1,0,0-3.07,1.54,1.54,0,1,0,0,3.07h0Z" transform="translate(0 -8.99)"/><path class="cls-1" d="M238,16.15a1.54,1.54,0,1,0,0-3.07,1.54,1.54,0,1,0,0,3.07h0Z" transform="translate(0 -8.99)"/><path class="cls-1" d="M596,28.42a1.54,1.54,0,1,0,0-3.07,1.54,1.54,0,1,0,0,3.07h0Z" transform="translate(0 -8.99)"/><path class="cls-1" d="M587.58,61.14a1.54,1.54,0,1,0,0-3.07,1.54,1.54,0,1,0,0,3.07h0Z" transform="translate(0 -8.99)"/><path class="cls-1" d="M805.77,122.5a1.54,1.54,0,1,0,0-3.07,1.54,1.54,0,1,0,0,3.07h0Z" transform="translate(0 -8.99)"/><path class="cls-1" d="M737.06,216.58a1.54,1.54,0,1,0,0-3.07,1.54,1.54,0,1,0,0,3.07h0Z" transform="translate(0 -8.99)"/><path class="cls-1" d="M905.83,189a1.54,1.54,0,1,0,0-3.07,1.54,1.54,0,1,0,0,3.07h0Z" transform="translate(0 -8.99)"/><path class="cls-1" d="M581.55,177.72a1.54,1.54,0,1,0,0-3.07,1.54,1.54,0,1,0,0,3.07h0Z" transform="translate(0 -8.99)"/><path class="cls-1" d="M885.33,15.13a1.54,1.54,0,1,0,0-3.07,1.54,1.54,0,1,0,0,3.07h0Z" transform="translate(0 -8.99)"/><path class="cls-1" d="M999.85,19.22a1.54,1.54,0,1,0,0-3.07,1.54,1.54,0,1,0,0,3.07h0Z" transform="translate(0 -8.99)"/><path class="cls-1" d="M989,43.76a1.54,1.54,0,1,0,0-3.07,1.54,1.54,0,1,0,0,3.07h0Z" transform="translate(0 -8.99)"/><path class="cls-1" d="M792.51,191c3.86,0,3.86-5.11,0-5.11s-3.86,5.11,0,5.11h0Z" transform="translate(0 -8.99)"/><path class="cls-1" d="M453.77,190c3.86,0,3.86-5.11,0-5.11s-3.86,5.11,0,5.11h0Z" transform="translate(0 -8.99)"/><path class="cls-1" d="M692.46,272.83c3.86,0,3.86-5.11,0-5.11s-3.86,5.11,0,5.11h0Z" transform="translate(0 -8.99)"/><path class="cls-1" d="M675.58,225.79a1.54,1.54,0,1,0,0-3.07,1.54,1.54,0,1,0,0,3.07h0Z" transform="translate(0 -8.99)"/><path class="cls-1" d="M831.09,267.71a1.54,1.54,0,1,0,0-3.07,1.54,1.54,0,1,0,0,3.07h0Z" transform="translate(0 -8.99)"/><path class="cls-1" d="M786.48,258.51a1.54,1.54,0,1,0,0-3.07,1.54,1.54,0,1,0,0,3.07h0Z" transform="translate(0 -8.99)"/><path class="cls-1" d="M428.46,253.4a1.54,1.54,0,1,0,0-3.07,1.54,1.54,0,1,0,0,3.07h0Z" transform="translate(0 -8.99)"/><path class="cls-1" d="M386.27,177.72a1.54,1.54,0,1,0,0-3.07,1.54,1.54,0,1,0,0,3.07h0Z" transform="translate(0 -8.99)"/><path class="cls-1" d="M429.66,59.1a1.54,1.54,0,1,0,0-3.07,1.54,1.54,0,1,0,0,3.07h0Z" transform="translate(0 -8.99)"/><path class="cls-1" d="M521.28,180.79a1.54,1.54,0,1,0,0-3.07,1.54,1.54,0,1,0,0,3.07h0Z" transform="translate(0 -8.99)"/><path class="cls-1" d="M526.1,218.63a1.54,1.54,0,1,0,0-3.07,1.54,1.54,0,1,0,0,3.07h0Z" transform="translate(0 -8.99)"/><path class="cls-1" d="M205.44,264.65a1.54,1.54,0,1,0,0-3.07,1.54,1.54,0,1,0,0,3.07h0Z" transform="translate(0 -8.99)"/><path class="cls-1" d="M107.8,269.76a1.54,1.54,0,1,0,0-3.07,1.54,1.54,0,1,0,0,3.07h0Z" transform="translate(0 -8.99)"/><path class="cls-1" d="M756.35,120.46a1.54,1.54,0,1,0,0-3.07,1.54,1.54,0,1,0,0,3.07h0Z" transform="translate(0 -8.99)"/><path class="cls-1" d="M734.65,151.14a1.54,1.54,0,1,0,0-3.07,1.54,1.54,0,1,0,0,3.07h0Z" transform="translate(0 -8.99)"/><path class="cls-1" d="M656.29,171.59a1.54,1.54,0,1,0,0-3.07,1.54,1.54,0,1,0,0,3.07h0Z" transform="translate(0 -8.99)"/><path class="cls-1" d="M976.95,210.45a1.54,1.54,0,1,0,0-3.07,1.54,1.54,0,1,0,0,3.07h0Z" transform="translate(0 -8.99)"/></svg>